<svg width="20" height="12" viewBox="0 0 20 12" fill="none" xmlns="http://www.w3.org/2000/svg">
<path fill-rule="evenodd" clip-rule="evenodd" d="M1.06911 0.0344035C0.664299 0.134772 0.29709 0.457697 0.113465 0.874815C0.0211251 1.08461 0.00488727 1.17452 0.00570895 1.47176C0.0075088 2.13008 -0.368074 1.68546 4.67206 6.99606C7.71186 10.1989 9.21071 11.7504 9.33208 11.8196C9.61548 11.9813 9.95017 12.0381 10.2446 11.9745C10.3791 11.9454 10.5697 11.8757 10.668 11.8196C10.7894 11.7504 12.2883 10.1989 15.3281 6.99606C20.3686 1.68501 19.9929 2.12979 19.9941 1.47176C19.9946 1.17374 19.9781 1.08374 19.8832 0.865182C19.5548 0.109001 18.6795 -0.210878 17.9625 0.163219C17.8605 0.216368 16.4447 1.67554 13.903 4.34683L10.0001 8.44885L6.09712 4.34683C3.54551 1.66508 2.13998 0.216697 2.03767 0.163508C1.73983 0.00871451 1.3709 -0.0404406 1.06911 0.0344035Z" fill="#E0DEE2"/>
</svg>
