<svg width="8" height="12" viewBox="0 0 8 12" fill="none" xmlns="http://www.w3.org/2000/svg">
<path fill-rule="evenodd" clip-rule="evenodd" d="M0.0229356 11.3585C0.089848 11.6014 0.305131 11.8217 0.58321 11.9319C0.723072 11.9873 0.783014 11.9971 0.981171 11.9966C1.42005 11.9955 1.12364 12.2208 4.66404 9.19676C6.79928 7.37288 7.83359 6.47357 7.87976 6.40075C7.98753 6.23071 8.02541 6.0299 7.98301 5.85324C7.96363 5.77252 7.91716 5.65819 7.87976 5.59917C7.83359 5.52635 6.79928 4.62704 4.66404 2.80317C1.12334 -0.221175 1.41986 0.00424379 0.98117 0.00356288C0.782492 0.00325772 0.722496 0.0131178 0.576787 0.0700721C0.0726668 0.267133 -0.140586 0.792298 0.108812 1.22253C0.144245 1.28368 1.11703 2.1332 2.89789 3.6582L5.63256 5.99996L2.89789 8.34173C1.11006 9.87269 0.144465 10.716 0.109005 10.7774C0.00580963 10.9561 -0.0269604 11.1775 0.0229356 11.3585Z" fill="white"/>
</svg>
