<svg width="12" height="8" viewBox="0 0 12 8" fill="none" xmlns="http://www.w3.org/2000/svg">
<path fill-rule="evenodd" clip-rule="evenodd" d="M1.01585 0.02079C0.780961 0.0814426 0.567891 0.276586 0.461345 0.52865C0.407765 0.655428 0.398344 0.709761 0.39882 0.889381C0.399865 1.2872 0.181937 1.01852 3.10643 4.22771C4.87024 6.16319 5.73993 7.10075 5.81035 7.14259C5.97479 7.24029 6.169 7.27462 6.33984 7.23618C6.41789 7.21862 6.52845 7.1765 6.58553 7.14259C6.65596 7.10075 7.52565 6.16319 9.28946 4.22771C12.2142 1.01825 11.9962 1.28703 11.9969 0.889381C11.9972 0.709289 11.9876 0.654906 11.9325 0.522828C11.742 0.0658691 11.2341 -0.127433 10.818 0.0986332C10.7589 0.130751 9.93736 1.01253 8.46259 2.62679L6.19794 5.10563L3.9333 2.62679C2.45276 1.00621 1.63721 0.13095 1.57784 0.0988075C1.40503 0.00526617 1.19096 -0.0244382 1.01585 0.02079Z" fill="#9327FF"/>
</svg>
