<svg width="20" height="20" viewBox="0 0 20 20" fill="none" xmlns="http://www.w3.org/2000/svg">
<g clip-path="url(#clip0_2926_869)">
<path d="M14.5308 8.74968C12.6356 8.74968 11.0934 10.2918 11.0934 12.187C11.0934 14.0823 12.6356 15.6244 14.5308 15.6244C16.426 15.6244 17.9682 14.0823 17.9682 12.187C17.9682 10.2918 16.426 8.74968 14.5308 8.74968ZM15.9882 11.6355C14.9889 13.1346 15.2723 12.7096 14.7382 13.5104C14.5464 13.7982 14.158 13.8745 13.8714 13.6835L12.934 13.0585C12.6469 12.8671 12.5695 12.4792 12.7609 12.1917C12.9523 11.9046 13.3402 11.8273 13.6277 12.0187L14.0449 12.2968C15.0416 10.8019 14.988 10.8433 15.1558 10.7477C15.725 10.4184 16.354 11.0861 15.9882 11.6355ZM11.7184 15.9346V19.3743C11.7184 19.8531 12.2371 20.1549 12.6535 19.9168L14.5308 18.8442L16.4081 19.9168C16.8229 20.1546 17.3432 19.8545 17.3432 19.3743V15.9346C15.6781 17.1873 13.3859 17.1891 11.7184 15.9346ZM15.7808 7.66925V1.35737C15.7808 0.608962 15.1718 0 14.4234 0H3.38862C2.64021 0 2.03125 0.608962 2.03125 1.35737V15.8295C2.03125 16.5779 2.64021 17.1869 3.38862 17.1869H10.4684C10.4684 14.4974 10.4643 14.6639 10.4782 14.5401C8.38602 10.9532 11.7175 6.54085 15.7808 7.66925ZM5.78111 3.12488H11.0934C11.4387 3.12488 11.7184 3.40456 11.7184 3.74986C11.7184 4.09516 11.4387 4.37484 11.0934 4.37484H5.78111C5.43581 4.37484 5.15614 4.09516 5.15614 3.74986C5.15614 3.40456 5.43581 3.12488 5.78111 3.12488ZM8.906 9.37465H5.78111C5.43581 9.37465 5.15614 9.09498 5.15614 8.74968C5.15614 8.40438 5.43581 8.1247 5.78111 8.1247H8.906C9.2513 8.1247 9.53098 8.40438 9.53098 8.74968C9.53098 9.09498 9.2513 9.37465 8.906 9.37465ZM5.78111 6.87475C5.43581 6.87475 5.15614 6.59507 5.15614 6.24977C5.15614 5.90447 5.43581 5.62479 5.78111 5.62479H11.0934C11.4387 5.62479 11.7184 5.90447 11.7184 6.24977C11.7184 6.59507 11.4387 6.87475 11.0934 6.87475H5.78111Z" fill="#FF008A"/>
</g>
<defs>
<clipPath id="clip0_2926_869">
<rect width="20" height="20" fill="white"/>
</clipPath>
</defs>
</svg>
