<svg width="15" height="15" viewBox="0 0 15 15" fill="none" xmlns="http://www.w3.org/2000/svg">
<g clip-path="url(#clip0_2926_44)">
<path d="M7.5 0.625C6.14026 0.625 4.81105 1.02821 3.68046 1.78365C2.54987 2.53908 1.66868 3.61281 1.14833 4.86906C0.627979 6.1253 0.491831 7.50763 0.757104 8.84125C1.02238 10.1749 1.67716 11.3999 2.63864 12.3614C3.60013 13.3229 4.82514 13.9776 6.15876 14.2429C7.49238 14.5082 8.87471 14.372 10.131 13.8517C11.3872 13.3313 12.4609 12.4501 13.2164 11.3196C13.9718 10.189 14.375 8.85975 14.375 7.50001C14.3729 5.6773 13.6478 3.92987 12.359 2.64102C11.0701 1.35217 9.32271 0.62715 7.5 0.625ZM9.81688 9.81688C9.69967 9.93405 9.54073 9.99988 9.375 9.99988C9.20927 9.99988 9.05033 9.93405 8.93313 9.81688L7.05813 7.94188C6.94091 7.8247 6.87504 7.66575 6.875 7.50001V3.75C6.875 3.58424 6.94085 3.42527 7.05806 3.30806C7.17527 3.19085 7.33424 3.125 7.5 3.125C7.66576 3.125 7.82473 3.19085 7.94194 3.30806C8.05915 3.42527 8.125 3.58424 8.125 3.75V7.24126L9.81688 8.93313C9.93405 9.05034 9.99987 9.20928 9.99987 9.37501C9.99987 9.54074 9.93405 9.69968 9.81688 9.81688Z" fill="#535156"/>
</g>
<defs>
<clipPath id="clip0_2926_44">
<rect width="15" height="15" fill="white"/>
</clipPath>
</defs>
</svg>
