<svg width="10" height="10" viewBox="0 0 10 10" fill="none" xmlns="http://www.w3.org/2000/svg">
<path fill-rule="evenodd" clip-rule="evenodd" d="M0.217049 9.91774C0.297363 9.97139 0.391784 10 0.48837 10C0.552507 10.0001 0.616029 9.9875 0.675288 9.96297C0.734547 9.93843 0.788375 9.90243 0.83368 9.85703L5.00005 5.69066L9.16642 9.85703C9.21173 9.90243 9.26555 9.93843 9.32481 9.96297C9.38407 9.9875 9.44759 10.0001 9.51173 10C9.60832 10 9.70274 9.97139 9.78305 9.91774C9.86336 9.86409 9.92596 9.78782 9.96293 9.69859C9.99989 9.60936 10.0096 9.51117 9.99071 9.41644C9.97186 9.32171 9.92535 9.2347 9.85704 9.16641L5.69067 5.00004L9.85706 0.833653C9.94865 0.742071 10.0001 0.617859 10.0001 0.488342C10.0001 0.358826 9.94865 0.234614 9.85706 0.143032C9.76548 0.0514502 9.64127 0 9.51175 0C9.38224 0 9.25803 0.0514502 9.16644 0.143032L5.00005 4.30942L0.833662 0.143032C0.74208 0.0514502 0.617868 0 0.488351 0C0.358835 0 0.234623 0.0514502 0.143041 0.143032C0.0514592 0.234614 9.0127e-06 0.358826 9.0127e-06 0.488342C9.0127e-06 0.617859 0.0514592 0.742071 0.143041 0.833653L4.30943 5.00004L0.143059 9.16641C0.0747539 9.2347 0.0282352 9.32171 0.00938733 9.41644C-0.00946053 9.51117 0.000209163 9.60936 0.0371733 9.69859C0.0741374 9.78782 0.136735 9.86409 0.217049 9.91774Z" fill="white"/>
</svg>
