<svg width="20" height="20" viewBox="0 0 20 20" fill="none" xmlns="http://www.w3.org/2000/svg">
<path fill-rule="evenodd" clip-rule="evenodd" d="M4.5824 0.0779789C4.36415 0.193044 4.18018 0.381528 4.08501 0.587544C4.00832 0.753561 3.998 0.90557 3.99711 1.88733L3.99608 2.99911L3.1635 3.01847C2.41109 3.036 2.30049 3.04945 2.01469 3.15807C1.13315 3.49321 0.493072 4.13462 0.158635 5.018C0.0502359 5.30439 0.0368209 5.41523 0.0193251 6.16921L0 7.00353H10H20L19.9807 6.16921C19.9632 5.41523 19.9498 5.30439 19.8414 5.018C19.5053 4.13034 18.8711 3.49485 17.9853 3.15807C17.6995 3.04945 17.5889 3.036 16.8365 3.01847L16.0039 2.99911V1.89758C16.0039 1.00808 15.9899 0.762397 15.9311 0.621293C15.775 0.246909 15.4127 0 15.0193 0C14.6053 0 14.306 0.178237 14.1114 0.540541C14.0174 0.715629 14.0094 0.806768 13.9957 1.86839L13.9809 3.00823H10H6.01907L6.0043 1.86839C5.9906 0.806768 5.98263 0.715629 5.88858 0.540541C5.76184 0.304536 5.6147 0.165828 5.39237 0.0727615C5.17027 -0.0202585 4.76369 -0.0176263 4.5824 0.0779789ZM0.0196534 13.3608L0.0325525 17.6968L0.155586 18.0137C0.501328 18.9043 1.12597 19.5302 2.01469 19.8767L2.33093 20H9.95309H17.5753L17.9036 19.8957C18.8038 19.6099 19.5509 18.8701 19.8631 17.9553L19.9674 17.6498L19.9801 13.3373L19.9928 9.02468H9.99977H0.00675446L0.0196534 13.3608Z" fill="#EDBA36"/>
</svg>
