<svg width="84" height="84" viewBox="0 0 84 84" fill="none" xmlns="http://www.w3.org/2000/svg">
<g clip-path="url(#clip0_2617_206)">
<path d="M0.00247022 23.1965C-0.176522 11.1813 9.39423 1.06985 21.4105 0.997006C27.0088 0.963046 32.1143 3.06518 35.9627 6.53543C38.2845 8.62903 41.8491 8.62903 44.1707 6.53543C48.0191 3.06518 53.1246 0.962881 58.7227 0.997006C70.739 1.06985 80.3098 11.1813 80.1308 23.1965C79.8738 40.4444 69.4772 45.0207 69.4772 59.6252C69.4772 74.131 62.7748 83.0033 56.2162 83.0033C49.2813 83.0033 45.2781 74.9006 42.5001 67.9376C41.6248 65.7439 38.5084 65.7439 37.6332 67.9376C34.8551 74.9006 30.852 83.0033 23.917 83.0033C17.3585 83.0033 10.656 74.1308 10.656 59.6252C10.656 45.0207 0.259392 40.4442 0.00247022 23.1965Z" fill="#9327FF"/>
<path d="M47 31.5163C46.9979 27.3848 44.0877 26.9983 40.4978 27C36.9079 27.0017 33.9981 27.3915 34 31.523C34.0019 35.6542 36.9138 39.0019 40.5037 39C44.0936 38.998 47.0021 35.6475 47 31.5163Z" fill="white"/>
<path d="M53.9972 27C53.9959 27 53.9945 27 53.9932 27C52.8904 26.9982 51.9979 26.2606 52 25.3523L52.0061 22.6415C52.0083 21.7344 52.9018 21 54.0028 21H54.0068C55.1096 21.0018 56.0021 21.7394 56 22.6477L55.9939 25.3585C55.992 26.2656 55.0982 27 53.9972 27Z" fill="white"/>
<path d="M30.2949 27C30.2935 27 30.2924 27 30.291 27C29.349 26.9982 28.587 26.3142 28.5893 25.4722C28.5911 24.689 27.88 24.0506 27.0037 24.049C27.0026 24.049 27.0015 24.049 27.0001 24.049C26.1255 24.049 25.413 24.6839 25.4112 25.4661C25.4091 26.3067 24.6457 26.987 23.7056 26.987C23.7042 26.987 23.7031 26.987 23.7017 26.987C22.7598 26.9852 21.9977 26.3012 22 25.4591C22.0061 22.9984 24.2482 21 26.9999 21H27.011C29.7682 21.0055 32.0061 23.0146 32 25.4789C31.9982 26.3197 31.235 27 30.2949 27Z" fill="white"/>
<path d="M66 71C75.9411 71 84 62.9411 84 53C84 43.0589 75.9411 35 66 35C56.0589 35 48 43.0589 48 53C48 62.9411 56.0589 71 66 71Z" fill="#EDBA36"/>
<path d="M59 50.6668H63.6665V46H68.3333V50.6668H73V55.3335H68.3333V60H63.6665V55.3335H59V50.6668Z" fill="white"/>
</g>
<defs>
<clipPath id="clip0_2617_206">
<rect width="84" height="84" fill="white"/>
</clipPath>
</defs>
</svg>
