<svg width="84" height="84" viewBox="0 0 84 84" fill="none" xmlns="http://www.w3.org/2000/svg">
<path d="M66.7242 69.8742L68.5453 71.7117L71.6953 68.5617L69.8578 66.7406C68.9062 67.8562 67.8563 68.9062 66.7242 69.8742Z" fill="#EDBA36"/>
<path d="M70.5469 73.6969L77.7492 80.9156C78.143 81.3094 78.7828 81.3094 79.193 80.9156L80.9156 79.193C81.3094 78.7828 81.3094 78.143 80.8992 77.7492L73.6969 70.5469L70.5469 73.6969Z" fill="#EDBA36"/>
<path d="M2.80547 40.4414C2.80547 42.9516 3.65859 45.3797 5.20078 47.3648L15.225 60.1125C17.1445 62.5898 18.2109 65.625 18.2109 68.7586V79.8C18.2109 80.5711 18.8344 81.1945 19.6055 81.1945H47.6109C48.382 81.1945 49.0055 80.5711 49.0055 79.8V76.9289C48.5297 76.9453 48.0867 76.9945 47.6109 76.9945C31.3688 77.0602 18.1453 63.968 18.0797 47.7258C18.0141 31.4836 31.1063 18.2602 47.3484 18.1945C49.793 18.1781 52.2375 18.4734 54.6 19.0641V12.8297C54.6492 10.6148 53.0086 8.71172 50.8102 8.41641C48.4641 8.23594 46.3969 9.99141 46.2164 12.3375C46.2164 12.4195 46.2 12.518 46.2 12.6C46.2 13.3711 45.5766 13.9945 44.8055 13.9945C44.0344 13.9945 43.4109 13.3711 43.4109 12.6V10.0406C43.4602 7.82578 41.8195 5.92266 39.6211 5.62734C37.275 5.44687 35.2078 7.18594 35.0273 9.54844C35.0273 9.63047 35.0109 9.72891 35.0109 9.81094C35.0109 10.582 34.3875 11.2055 33.6164 11.2055C32.8453 11.2055 32.2219 10.582 32.2219 9.81094V7.23516C32.2711 5.02031 30.6305 3.11719 28.432 2.82187C26.0859 2.625 24.0352 4.36406 23.8383 6.71016C23.8383 6.80859 23.8219 6.90703 23.8219 6.98906V8.38359C23.8219 9.15469 23.1984 9.77812 22.4273 9.77812C21.6562 9.77812 21.0328 9.15469 21.0328 8.38359C21 6.0375 19.0805 4.16719 16.7344 4.18359C16.6359 4.18359 16.5211 4.18359 16.4227 4.2C14.2242 4.49531 12.5836 6.39844 12.6328 8.61328V36.3727C12.6328 37.1437 12.0094 37.7672 11.2383 37.7672C10.4672 37.7672 9.84375 37.1437 9.84375 36.3727V16.9312C5.80781 17.6203 2.85469 21.1148 2.83828 25.2V40.4414H2.80547Z" fill="#9327FF"/>
<path d="M68.5945 47.5945C68.5945 39.8016 64.2797 32.6648 57.3891 29.0227V43.8047C57.3891 45.5766 57.0117 47.3156 56.3063 48.9234L52.6312 57.1758C52.0734 58.4227 51.7945 59.7844 51.7945 61.1625V68.168C61.5727 66.1664 68.5945 57.5695 68.5945 47.5945Z" fill="#EDBA36"/>
<path d="M47.5945 21C32.9109 21.0164 21.0164 32.9109 21 47.5945C21 62.2781 32.9109 74.1891 47.5945 74.1891C62.2781 74.1891 74.1891 62.2781 74.1891 47.5945C74.1891 32.9109 62.2945 21 47.5945 21ZM41.6719 70.6617C28.9406 67.3805 21.2789 54.4031 24.5602 41.6719C27.2016 31.4508 36.225 24.2156 46.7086 23.8219C46.725 23.8055 46.7414 23.8055 46.7414 23.8055C46.7414 23.8055 49.5305 23.625 53.3203 24.5273C53.4023 24.5273 53.468 24.5437 53.55 24.5602C54.0258 24.6914 54.5016 24.8227 54.9773 24.9703C54.9938 24.9703 55.0266 24.9867 55.043 24.9867C66.8719 28.8586 73.8117 41.3109 70.6617 53.55C67.3805 66.2812 54.4031 73.943 41.6719 70.6617Z" fill="#EDBA36"/>
<path d="M45.593 26.693C34.9289 27.6937 26.5945 36.668 26.5945 47.5945C26.5945 59.1938 35.9953 68.5945 47.5945 68.5945C48.0703 68.5945 48.5297 68.5617 48.9891 68.5289V61.1789C48.9891 59.407 49.3664 57.668 50.0719 56.0602L53.7469 47.8078C54.3047 46.5609 54.5836 45.1992 54.5836 43.8211V27.8086C54.157 27.6609 53.7141 27.5297 53.2711 27.3984C51.7617 26.9719 49.0055 26.4469 45.593 26.693ZM34.9945 55.9945C34.9945 56.7656 34.3711 57.3891 33.6 57.3891C32.8289 57.3891 32.2055 56.7656 32.2055 55.9945V54.6C32.2055 53.8289 32.8289 53.2055 33.6 53.2055C34.3711 53.2055 34.9945 53.8289 34.9945 54.6V55.9945ZM34.9945 49.0055C34.9945 49.7766 34.3711 50.4 33.6 50.4C32.8289 50.4 32.2055 49.7766 32.2055 49.0055V47.6109C32.2055 46.8398 32.8289 46.2164 33.6 46.2164C34.3711 46.2164 34.9945 46.8398 34.9945 47.6109V49.0055ZM34.9945 42C34.9945 42.7711 34.3711 43.3945 33.6 43.3945C32.8289 43.3945 32.2055 42.7711 32.2055 42V40.6055C32.2055 39.8344 32.8289 39.2109 33.6 39.2109C34.3711 39.2109 34.9945 39.8344 34.9945 40.6055V42ZM40.6055 57.4055C40.6055 58.1766 39.982 58.8 39.2109 58.8C38.4398 58.8 37.8164 58.1766 37.8164 57.4055V56.0109C37.8164 55.2398 38.4398 54.6164 39.2109 54.6164C39.982 54.6164 40.6055 55.2398 40.6055 56.0109V57.4055ZM40.6055 50.4C40.6055 51.1711 39.982 51.7945 39.2109 51.7945C38.4398 51.7945 37.8164 51.1711 37.8164 50.4V49.0055C37.8164 48.2344 38.4398 47.6109 39.2109 47.6109C39.982 47.6109 40.6055 48.2344 40.6055 49.0055V50.4ZM40.6055 43.3945C40.6055 44.1656 39.982 44.7891 39.2109 44.7891C38.4398 44.7891 37.8164 44.1656 37.8164 43.3945V42C37.8164 41.2289 38.4398 40.6055 39.2109 40.6055C39.982 40.6055 40.6055 41.2289 40.6055 42V43.3945ZM40.6055 36.4055C40.6055 37.1766 39.982 37.8 39.2109 37.8C38.4398 37.8 37.8164 37.1766 37.8164 36.4055V35.0109C37.8164 34.2398 38.4398 33.6164 39.2109 33.6164C39.982 33.6164 40.6055 34.2398 40.6055 35.0109V36.4055ZM46.2 61.6055C46.2 62.3766 45.5766 63 44.8055 63C44.0344 63 43.4109 62.3766 43.4109 61.6055V60.2109C43.4109 59.4398 44.0344 58.8164 44.8055 58.8164C45.5766 58.8164 46.2 59.4398 46.2 60.2109V61.6055ZM46.2 54.6C46.2 55.3711 45.5766 55.9945 44.8055 55.9945C44.0344 55.9945 43.4109 55.3711 43.4109 54.6V53.2055C43.4109 52.4344 44.0344 51.8109 44.8055 51.8109C45.5766 51.8109 46.2 52.4344 46.2 53.2055V54.6ZM46.2 47.5945C46.2 48.3656 45.5766 48.9891 44.8055 48.9891C44.0344 48.9891 43.4109 48.3656 43.4109 47.5945V46.2C43.4109 45.4289 44.0344 44.8055 44.8055 44.8055C45.5766 44.8055 46.2 45.4289 46.2 46.2V47.5945ZM46.2 40.6055C46.2 41.3766 45.5766 42 44.8055 42C44.0344 42 43.4109 41.3766 43.4109 40.6055V39.2109C43.4109 38.4398 44.0344 37.8164 44.8055 37.8164C45.5766 37.8164 46.2 38.4398 46.2 39.2109V40.6055ZM46.2 33.6C46.2 34.3711 45.5766 34.9945 44.8055 34.9945C44.0344 34.9945 43.4109 34.3711 43.4109 33.6V32.2055C43.4109 31.4344 44.0344 30.8109 44.8055 30.8109C45.5766 30.8109 46.2 31.4344 46.2 32.2055V33.6ZM51.7945 46.2C51.7945 46.9711 51.1711 47.5945 50.4 47.5945C49.6289 47.5945 49.0055 46.9711 49.0055 46.2V44.8055C49.0055 44.0344 49.6289 43.4109 50.4 43.4109C51.1711 43.4109 51.7945 44.0344 51.7945 44.8055V46.2ZM51.7945 39.1945C51.7945 39.9656 51.1711 40.5891 50.4 40.5891C49.6289 40.5891 49.0055 39.9656 49.0055 39.1945V37.8C49.0055 37.0289 49.6289 36.4055 50.4 36.4055C51.1711 36.4055 51.7945 37.0289 51.7945 37.8V39.1945ZM51.7945 32.2055C51.7945 32.9766 51.1711 33.6 50.4 33.6C49.6289 33.6 49.0055 32.9766 49.0055 32.2055V30.8109C49.0055 30.0398 49.6289 29.4164 50.4 29.4164C51.1711 29.4164 51.7945 30.0398 51.7945 30.8109V32.2055Z" fill="#9327FF"/>
</svg>
