<svg width="25" height="25" viewBox="0 0 25 25" fill="none" xmlns="http://www.w3.org/2000/svg">
<path d="M19.7917 7.29166H17.7083V6.25C17.7083 5.4212 17.3791 4.62634 16.793 4.04029C16.207 3.45424 15.4121 3.125 14.5833 3.125H10.4167C9.58786 3.125 8.793 3.45424 8.20695 4.04029C7.6209 4.62634 7.29166 5.4212 7.29166 6.25V7.29166H5.20833C4.6563 7.29331 4.12736 7.51334 3.73702 7.90368C3.34667 8.29402 3.12665 8.82297 3.125 9.375V19.7917C3.12665 20.3437 3.34667 20.8726 3.73702 21.263C4.12736 21.6533 4.6563 21.8733 5.20833 21.875H19.7917C20.3437 21.8733 20.8726 21.6533 21.263 21.263C21.6533 20.8726 21.8733 20.3437 21.875 19.7917V9.375C21.8733 8.82297 21.6533 8.29402 21.263 7.90368C20.8726 7.51334 20.3437 7.29331 19.7917 7.29166ZM9.375 6.25C9.375 5.97373 9.48474 5.70878 9.68009 5.51343C9.87544 5.31808 10.1404 5.20833 10.4167 5.20833H14.5833C14.8596 5.20833 15.1245 5.31808 15.3199 5.51343C15.5152 5.70878 15.625 5.97373 15.625 6.25V7.29166H9.375V6.25ZM15.625 15.625H13.5417V17.7083H11.4583V15.625H9.375V13.5417H11.4583V11.4583H13.5417V13.5417H15.625V15.625Z" fill="#535156"/>
</svg>
