<svg width="30" height="30" viewBox="0 0 30 30" fill="none" xmlns="http://www.w3.org/2000/svg">
<mask id="mask0_2617_162" style="mask-type:luminance" maskUnits="userSpaceOnUse" x="0" y="0" width="30" height="30">
<rect width="30" height="30" fill="white"/>
</mask>
<g mask="url(#mask0_2617_162)">
<path fill-rule="evenodd" clip-rule="evenodd" d="M26.1561 20.9096L21.0822 17.7266C21.0698 17.7392 21.0577 17.752 21.0451 17.7645C20.9279 17.8818 20.8071 17.9942 20.6835 18.1025V22.6179H21.621C22.7518 22.6179 23.6718 23.5378 23.6718 24.6686V26.1921C23.6718 26.9998 23.0147 27.6569 22.207 27.6569H21.3281C20.8427 27.6569 20.4492 27.2634 20.4492 26.778C20.4492 26.2926 20.8427 25.8991 21.3281 25.8991H21.914V24.6686C21.914 24.5071 21.7826 24.3757 21.621 24.3757H17.871C17.7095 24.3757 17.5781 24.5071 17.5781 24.6686V25.8991H18.164C18.6494 25.8991 19.0429 26.2926 19.0429 26.778C19.0429 27.2634 18.6494 27.6569 18.164 27.6569H17.2851C16.4774 27.6569 15.8203 26.9998 15.8203 26.1921V24.6686C15.8203 23.5378 16.7402 22.6179 17.871 22.6179H18.9257V19.2468C17.9695 19.6891 16.9204 19.9225 15.8354 19.9225H14.1646C13.0685 19.9225 12.009 19.6845 11.0449 19.2334V22.8377C12.0526 23.2086 12.7734 24.1783 12.7734 25.3132C12.7734 26.767 11.5905 27.9499 10.1367 27.9499C8.68277 27.9499 7.49994 26.767 7.49994 25.3132C7.49994 24.1565 8.24889 23.1721 9.28705 22.8177V18.0766C9.17373 17.9762 9.06275 17.8725 8.95477 17.7646C8.94223 17.7521 8.93016 17.7392 8.91768 17.7266L3.84375 20.9097C1.45207 22.4101 0 25.0351 0 27.8586V30.0007H30V27.8586C30 25.0351 28.5479 22.4101 26.1561 20.9096Z" fill="#9327FF"/>
<path fill-rule="evenodd" clip-rule="evenodd" d="M10.1367 26.1953C10.6213 26.1953 11.0156 25.801 11.0156 25.3164C11.0156 24.8318 10.6213 24.4375 10.1367 24.4375C9.65209 24.4375 9.25781 24.8318 9.25781 25.3164C9.25781 25.801 9.65209 26.1953 10.1367 26.1953Z" fill="#9327FF"/>
<path fill-rule="evenodd" clip-rule="evenodd" d="M8.55469 8.95658H21.4453V3.51562C21.4453 1.574 19.8713 0 17.9297 0H12.0703C10.1287 0 8.55469 1.574 8.55469 3.51562V8.95658ZM13.5352 4.04297H14.1211V3.45703C14.1211 2.97164 14.5146 2.57812 15 2.57812C15.4854 2.57812 15.8789 2.97164 15.8789 3.45703V4.04297H16.4648C16.9502 4.04297 17.3438 4.43648 17.3438 4.92188C17.3438 5.40727 16.9502 5.80078 16.4648 5.80078H15.8789V6.38672C15.8789 6.87211 15.4854 7.26562 15 7.26562C14.5146 7.26562 14.1211 6.87211 14.1211 6.38672V5.80078H13.5352C13.0498 5.80078 12.6562 5.40727 12.6562 4.92188C12.6562 4.43648 13.0498 4.04297 13.5352 4.04297Z" fill="#9327FF"/>
<path fill-rule="evenodd" clip-rule="evenodd" d="M14.1646 18.1606H15.8354C18.9337 18.1606 21.4453 15.649 21.4453 12.5507V10.7109H8.55469V12.5507C8.55469 15.649 11.0663 18.1606 14.1646 18.1606Z" fill="#9327FF"/>
</g>
</svg>
