<svg width="20" height="20" viewBox="0 0 20 20" fill="none" xmlns="http://www.w3.org/2000/svg">
<path d="M11.2833 13.8636C10.9273 14.0819 10.4715 14.2021 9.99966 14.2021C9.52784 14.2021 9.07197 14.0819 8.716 13.8636L2.90443 10.2993C2.90443 10.2993 2.37988 9.97777 2.37988 10.7061C2.37988 11.5333 2.37988 14.0147 2.37988 14.0147C2.37988 14.0477 2.37988 14.2138 2.37988 14.2653C2.37988 16.1402 5.79132 18.1615 9.99951 18.1615C14.2077 18.1615 17.6191 16.1403 17.6191 14.2653C17.6191 14.2138 17.6191 14.0477 17.6191 14.0147C17.6191 14.0147 17.6191 11.3828 17.6191 10.5055C17.6191 9.92082 17.2462 10.2065 17.2462 10.2065L11.2833 13.8636Z" fill="#FF008A"/>
<path d="M19.6651 7.46439C20.1116 7.19053 20.1116 6.74238 19.6651 6.46847L10.8119 2.04133C10.3653 1.76747 9.63461 1.76747 9.18806 2.04133L0.334912 6.46847C-0.111637 6.74233 -0.111637 7.19048 0.334912 7.46439L9.18806 12.8941C9.63461 13.168 10.3653 13.168 10.8119 12.8941" fill="#FF008A"/>
<path d="M19.299 15.5106C19.299 14.0115 19.299 9.51392 19.299 9.51392C19.299 9.51392 19.3031 9.22989 19.1346 9.32368C18.9994 9.39893 18.668 9.58365 18.5513 9.68521C18.4165 9.80237 18.4468 10.0653 18.4468 10.0653C18.4468 10.0653 18.4468 14.1493 18.4468 15.5106C18.4468 15.5879 18.3804 15.6248 18.3487 15.6435C18.0427 15.8234 17.8369 16.1555 17.8369 16.5362C17.8369 17.1084 18.3007 17.5722 18.8729 17.5722C19.4451 17.5722 19.9089 17.1084 19.9089 16.5362C19.9089 16.154 19.7016 15.8209 19.3936 15.6414C19.363 15.6236 19.299 15.5879 19.299 15.5106Z" fill="#FF008A"/>
</svg>
