<svg width="50" height="50" viewBox="0 0 50 50" fill="none" xmlns="http://www.w3.org/2000/svg">
<g clip-path="url(#clip0_2926_921)">
<path d="M40.1367 0.857666V9.76568H49.044L40.1367 0.857666Z" fill="#FF9900"/>
<path d="M38.6719 12.6953C37.8629 12.6953 37.207 12.0395 37.207 11.2305V0H16.2109C13.7878 0 11.8164 1.97139 11.8164 4.39453V20.7704C12.299 20.7267 12.7874 20.7031 13.2812 20.7031C18.2742 20.7031 22.7438 22.9859 25.7018 26.5625H41.6016C42.4105 26.5625 43.0664 27.2184 43.0664 28.0273C43.0664 28.8363 42.4105 29.4922 41.6016 29.4922H27.6316C28.5473 31.2789 29.1377 33.2583 29.3272 35.3516H41.6016C42.4105 35.3516 43.0664 36.0074 43.0664 36.8164C43.0664 37.6254 42.4105 38.2812 41.6016 38.2812H29.3272C28.8892 43.119 26.3044 47.3463 22.535 50H45.5078C47.931 50 49.9023 48.0286 49.9023 45.6055V12.6953H38.6719ZM41.6016 20.7031H20.1172C19.3082 20.7031 18.6523 20.0473 18.6523 19.2383C18.6523 18.4293 19.3082 17.7734 20.1172 17.7734H41.6016C42.4105 17.7734 43.0664 18.4293 43.0664 19.2383C43.0664 20.0473 42.4105 20.7031 41.6016 20.7031Z" fill="#FF9900"/>
<path d="M13.2812 23.6328C6.01182 23.6328 0.0976562 29.547 0.0976562 36.8164C0.0976562 44.0858 6.01182 50 13.2812 50C20.5507 50 26.4648 44.0858 26.4648 36.8164C26.4648 29.547 20.5507 23.6328 13.2812 23.6328ZM17.1875 38.2812H13.2812C12.4723 38.2812 11.8164 37.6254 11.8164 36.8164V30.957C11.8164 30.148 12.4723 29.4922 13.2812 29.4922C14.0902 29.4922 14.7461 30.148 14.7461 30.957V35.3516H17.1875C17.9965 35.3516 18.6523 36.0074 18.6523 36.8164C18.6523 37.6254 17.9965 38.2812 17.1875 38.2812Z" fill="#FF9900"/>
</g>
<defs>
<clipPath id="clip0_2926_921">
<rect width="50" height="50" fill="white"/>
</clipPath>
</defs>
</svg>
