<svg width="23" height="30" viewBox="0 0 23 30" fill="none" xmlns="http://www.w3.org/2000/svg">
<path fill-rule="evenodd" clip-rule="evenodd" d="M15 0V7.5H22.5L15 0ZM13.125 7.5V0H2.8125C1.25918 0 0 1.25918 0 2.8125V27.1875C0 28.7402 1.25918 30 2.8125 30H19.6875C21.2408 30 22.5 28.7408 22.5 27.1875V9.375H15.0527C13.9629 9.375 13.125 8.53711 13.125 7.5ZM16.875 17.6777V19.8205C16.875 20.2676 16.5176 20.625 16.0723 20.625L13.125 20.5723V23.5189C13.125 24.0176 12.7676 24.375 12.3223 24.375H10.1777C9.73242 24.375 9.375 24.0176 9.375 23.5723V20.5723L6.42773 20.625C5.98242 20.625 5.625 20.2676 5.625 19.8223V17.6777C5.625 17.2324 5.98242 16.875 6.42773 16.875H9.375V13.9277C9.375 13.4824 9.73242 13.125 10.1777 13.125H12.3205C12.7676 13.125 13.125 13.4824 13.125 13.9277V16.875H16.0717C16.5176 16.875 16.875 17.2324 16.875 17.6777Z" fill="#9327FF"/>
</svg>
