<svg width="20" height="20" viewBox="0 0 20 20" fill="none" xmlns="http://www.w3.org/2000/svg">
<path fill-rule="evenodd" clip-rule="evenodd" d="M6.12437 0.172384C5.94119 0.267218 5.72129 0.440199 5.63566 0.556755C5.31444 0.994172 5.28479 1.16238 5.28479 2.54755V3.84106H4.29653H3.30827V20H10.0029H16.6976L16.6269 3.82921L15.7094 3.84106H14.7211V2.54755C14.7211 1.15437 14.6925 0.995629 14.36 0.542781C14.2687 0.418543 14.0472 0.245894 13.8678 0.159073L13.5416 0.00132428L9.99951 0.000662393L6.45751 0L6.12437 0.172384ZM13.6331 1.08854L13.8285 1.28305V2.56205V3.84106H10.0029H6.17742V2.58788C6.17742 1.34324 6.1785 1.33331 6.33898 1.13523C6.42786 1.0255 6.56412 0.922516 6.64184 0.906225C6.71956 0.89 8.28038 0.880596 10.1104 0.885364L13.4376 0.89404L13.6331 1.08854ZM1.28798 3.96649C1.10232 4.03311 0.844094 4.17616 0.714154 4.28437C0.42335 4.52649 0.0940349 5.07841 0.04086 5.41271C0.0189908 5.54993 0.000819918 8.51033 0.000437365 11.9913C-0.000327741 19.1407 -0.0268514 18.7406 0.4873 19.3346C0.982897 19.9072 1.13751 19.9616 2.34287 19.9884L3.30827 20V3.84325H2.50227C1.8226 3.8449 1.54971 3.87258 1.28798 3.96649ZM16.6976 20L17.663 19.9884C18.8688 19.9616 19.0229 19.9072 19.5196 19.3335C20.038 18.7345 20.0115 19.1585 19.9917 11.7822L19.9743 5.2649L19.8304 4.9853C19.6048 4.54675 19.3266 4.25927 18.9339 4.05894C18.5939 3.88556 18.5117 3.87278 17.5993 3.85166L16.6269 3.82921L16.6976 20ZM11.5266 6.98046C11.6556 7.10179 11.6607 7.16563 11.6607 8.65265V10.1987H13.13H14.5994L14.7594 10.3648L14.9193 10.5309L14.8999 11.9842C14.8855 13.0648 14.8593 13.4594 14.7977 13.5233C14.7365 13.587 14.3222 13.6179 13.2038 13.6424L11.6926 13.6755L11.6607 15.2538C11.6311 16.7185 11.6199 16.8389 11.505 16.926C11.3245 17.063 8.68142 17.063 8.50085 16.926C8.38602 16.8389 8.3748 16.7185 8.34522 15.2538L8.31334 13.6755L6.80423 13.6424C5.97422 13.6242 5.28237 13.5944 5.26675 13.5762C5.12119 13.4066 5.09352 13.1373 5.09352 11.8887C5.09352 10.5278 5.09396 10.5233 5.25005 10.3613L5.40651 10.1987H6.8759H8.34522V8.65265C8.34522 7.26285 8.3565 7.09642 8.4568 7.00563C8.6454 6.83503 8.71948 6.82748 10.0761 6.84113C11.2709 6.85311 11.4049 6.86596 11.5266 6.98046Z" fill="#EDBA36"/>
</svg>
