<svg width="26" height="20" viewBox="0 0 26 20" fill="none" xmlns="http://www.w3.org/2000/svg">
<path fill-rule="evenodd" clip-rule="evenodd" d="M6.00047 0.0302914C4.07218 0.24878 2.34648 1.26064 1.21727 2.83489C-0.291805 4.93874 -0.40718 7.74994 0.923804 9.98348C1.57951 11.0837 2.53362 11.978 3.66806 12.5556C4.09342 12.7721 4.84097 13.044 5.21536 13.1184C5.30807 13.1368 5.39422 13.1784 5.40677 13.2108C5.41932 13.2432 5.42349 13.9008 5.41602 14.6722L5.4025 16.0746L4.98136 15.7112C4.74974 15.5113 4.55248 15.3564 4.54298 15.367C4.53348 15.3776 4.21495 15.7544 3.83512 16.2045L3.1446 17.0228L4.92006 18.5114C5.89658 19.3301 6.72002 20 6.74995 20C6.79371 20 9.6507 17.7182 10.2938 17.1696L10.4583 17.0293L9.81848 16.2582C9.46661 15.8341 9.14808 15.4551 9.11062 15.4161C9.05263 15.3558 8.97009 15.403 8.55667 15.7329L8.07087 16.1206V14.6333V13.1462L8.28688 13.0921C11.7786 12.2177 13.9553 8.81384 13.2529 5.32655C12.7785 2.97118 11.0323 1.03338 8.73568 0.313625C7.91331 0.0559069 6.79605 -0.0598167 6.00047 0.0302914ZM18.0328 2.12461V2.90619H17.4483H16.8638V3.99031V5.07443H17.4483H18.0328V5.92967V6.78497L17.8168 6.83912C16.3552 7.20556 15.0976 7.98113 14.1774 9.08361C12.5943 10.9802 12.1897 13.5141 13.1067 15.7879C13.9301 17.8295 15.7298 19.3349 17.9311 19.8234C18.5116 19.9522 19.7285 19.9797 20.3723 19.8786C22.9024 19.481 25.02 17.627 25.7339 15.1845C26.6327 12.1089 25.196 8.8385 22.3122 7.39591C21.8675 7.17349 21.1869 6.92278 20.8664 6.86338L20.6758 6.82803V5.95126V5.07443H21.184H21.6923V3.99031V2.90619H21.184H20.6758V2.12461V1.34304H19.3543H18.0328V2.12461ZM7.84215 2.75804C9.62793 3.30797 10.7639 4.81631 10.7639 6.63758C10.7639 8.46253 9.63423 9.96296 7.84215 10.518C7.33771 10.6743 6.49653 10.7116 5.95081 10.6018C4.68428 10.3472 3.63218 9.54892 3.06638 8.41317C1.89519 6.06209 3.27045 3.2698 5.89104 2.67812C6.36113 2.57197 7.37242 2.61337 7.84215 2.75804ZM20.2315 9.38822C21.6833 9.67503 22.933 10.9088 23.2999 12.4174C23.4222 12.9204 23.4097 13.8101 23.2732 14.3211C22.9177 15.6515 21.9183 16.7166 20.6229 17.1455C17.8247 18.0722 14.9697 15.7929 15.2931 12.8902C15.4711 11.2921 16.5732 9.96583 18.1399 9.46411C18.7614 9.26509 19.4768 9.23917 20.2315 9.38822Z" fill="#EDBA36"/>
</svg>
