<svg width="14" height="14" viewBox="0 0 14 14" fill="none" xmlns="http://www.w3.org/2000/svg">
<mask id="mask0_2926_1165" style="mask-type:luminance" maskUnits="userSpaceOnUse" x="0" y="0" width="14" height="14">
<rect width="14" height="14" fill="white"/>
</mask>
<g mask="url(#mask0_2926_1165)">
<path fill-rule="evenodd" clip-rule="evenodd" d="M13.9635 5.35808C13.8718 5.07464 13.6204 4.87334 13.3229 4.84653L9.28214 4.47969L7.68431 0.740484C7.56649 0.466449 7.29817 0.289062 7.00006 0.289062C6.70194 0.289062 6.43362 0.466449 6.31581 0.741125L4.71797 4.47969L0.676558 4.84653C0.379615 4.87398 0.128816 5.07464 0.0366355 5.35808C-0.0555451 5.64151 0.0295857 5.95239 0.254216 6.14836L3.30856 8.82656L2.40791 12.7932C2.342 13.0849 2.45523 13.3864 2.69727 13.5613C2.82737 13.6553 2.97958 13.7031 3.13307 13.7031C3.26541 13.7031 3.39668 13.6675 3.5145 13.597L7.00006 11.5142L10.4843 13.597C10.7393 13.7503 11.0607 13.7363 11.3022 13.5613C11.5444 13.3858 11.6575 13.0843 11.5916 12.7932L10.6909 8.82656L13.7453 6.14889C13.9699 5.95239 14.0557 5.64204 13.9635 5.35808Z" fill="#00D193"/>
</g>
</svg>
