<svg width="20" height="20" viewBox="0 0 20 20" fill="none" xmlns="http://www.w3.org/2000/svg">
<g clip-path="url(#clip0_2926_850)">
<path d="M19.666 7.67788L10.5 1.01171C10.1667 0.761723 9.83335 0.761723 9.50006 1.01171L0.334014 7.67788C-0.33262 8.09453 0.0840312 9.17778 0.833979 9.17778H2.50054V18.3438C2.50054 18.8438 2.83384 19.1771 3.33381 19.1771H16.6662C17.1662 19.1771 17.4995 18.8438 17.4995 18.3438V9.17778H19.166C19.916 9.17778 20.3326 8.09453 19.666 7.67788ZM10 17.5106C7.25021 17.5106 5.00037 15.2607 5.00037 12.5109C5.00037 9.7611 7.25021 7.51125 10 7.51125C12.7498 7.51125 14.9997 9.7611 14.9997 12.5109C14.9997 15.2607 12.7498 17.5106 10 17.5106Z" fill="#FF008A"/>
<path d="M11.2496 11.2615V8.76172H8.74982V11.2615H6.25V13.7614H8.74982V16.2612H11.2496V13.7614H13.7495V11.2615H11.2496Z" fill="#FF008A"/>
</g>
<defs>
<clipPath id="clip0_2926_850">
<rect width="20" height="20" fill="white"/>
</clipPath>
</defs>
</svg>
