<svg width="22" height="22" viewBox="0 0 22 22" fill="none" xmlns="http://www.w3.org/2000/svg">
<path fill-rule="evenodd" clip-rule="evenodd" d="M21.3309 6.73424C21.2824 5.63438 21.1045 4.87825 20.8498 4.2231C20.5869 3.52758 20.1825 2.90485 19.6527 2.38724C19.1351 1.86157 18.5084 1.45309 17.8209 1.19434C17.1618 0.939503 16.4097 0.761713 15.3097 0.713183C14.2017 0.660628 13.8499 0.648438 11.0396 0.648438C8.22909 0.648438 7.8773 0.660628 6.77341 0.709043C5.67355 0.757573 4.91731 0.935592 4.26227 1.1902C3.56664 1.45309 2.94392 1.85743 2.4263 2.38724C1.90064 2.90485 1.49227 3.53172 1.2334 4.21907C0.97868 4.87825 0.800775 5.63035 0.752245 6.73021C0.69969 7.83824 0.6875 8.19002 0.6875 11.0005C0.6875 13.8109 0.69969 14.1627 0.74822 15.2667C0.796635 16.3665 0.974655 17.1226 1.2295 17.7779C1.49227 18.4733 1.90064 19.096 2.4263 19.6137C2.94392 20.1393 3.57078 20.5478 4.25814 20.8066C4.91731 21.0614 5.66941 21.2392 6.76939 21.2877C7.87328 21.3364 8.22517 21.3483 11.0355 21.3483C13.846 21.3483 14.1978 21.3364 15.3017 21.2877C16.4016 21.2392 17.1578 21.0614 17.8128 20.8066C19.204 20.2687 20.3039 19.1688 20.8417 17.7779C21.0963 17.1187 21.2743 16.3665 21.3229 15.2667C21.3713 14.1627 21.3835 13.8109 21.3835 11.0005C21.3835 8.19002 21.3793 7.83824 21.3309 6.73424ZM19.4673 15.1881C19.4228 16.1991 19.2529 16.745 19.1115 17.109C18.7636 18.0108 18.0479 18.7265 17.1461 19.0743C16.7821 19.2158 16.2323 19.3856 15.2253 19.43C14.1335 19.4787 13.806 19.4906 11.0441 19.4906C8.28225 19.4906 7.95071 19.4787 6.86281 19.43C5.85184 19.3856 5.30594 19.2158 4.94196 19.0743C4.49323 18.9084 4.08475 18.6456 3.75321 18.3019C3.40947 17.9662 3.1467 17.5619 2.98075 17.1131C2.8393 16.7492 2.66945 16.1991 2.62506 15.1923C2.57641 14.1005 2.56445 13.7728 2.56445 11.011C2.56445 8.24905 2.57641 7.9175 2.62506 6.82983C2.66945 5.81887 2.8393 5.27296 2.98075 4.90899C3.1467 4.46003 3.40947 4.05178 3.75735 3.72C4.0928 3.37627 4.49726 3.11349 4.9461 2.94778C5.31008 2.80621 5.86012 2.63647 6.86695 2.59186C7.95876 2.54344 8.28628 2.53125 11.0481 2.53125C13.8141 2.53125 14.1415 2.54344 15.2294 2.59186C16.2404 2.63647 16.7863 2.80621 17.1502 2.94778C17.599 3.11349 18.0075 3.37627 18.339 3.72C18.6827 4.05569 18.9455 4.46003 19.1115 4.90899C19.2529 5.27296 19.4228 5.82278 19.4673 6.82983C19.5158 7.92164 19.528 8.24905 19.528 11.011C19.528 13.7728 19.5158 14.0963 19.4673 15.1881Z" fill="white"/>
<path fill-rule="evenodd" clip-rule="evenodd" d="M11.0403 5.6875C8.10454 5.6875 5.72266 8.06927 5.72266 11.0051C5.72266 13.9409 8.10454 16.3226 11.0403 16.3226C13.9761 16.3226 16.3577 13.9409 16.3577 11.0051C16.3577 8.06927 13.9761 5.6875 11.0403 5.6875ZM11.0393 14.4534C9.13475 14.4534 7.58984 12.9087 7.58984 11.0041C7.58984 9.09937 9.13475 7.55469 11.0393 7.55469C12.9439 7.55469 14.4886 9.09937 14.4886 11.0041C14.4886 12.9087 12.9439 14.4534 11.0393 14.4534Z" fill="white"/>
<path fill-rule="evenodd" clip-rule="evenodd" d="M17.8091 5.4758C17.8091 6.16131 17.2532 6.71722 16.5676 6.71722C15.882 6.71722 15.3262 6.16131 15.3262 5.4758C15.3262 4.79005 15.882 4.23438 16.5676 4.23438C17.2532 4.23438 17.8091 4.79005 17.8091 5.4758Z" fill="white"/>
</svg>
