<svg width="14" height="20" viewBox="0 0 14 20" fill="none" xmlns="http://www.w3.org/2000/svg">
<path fill-rule="evenodd" clip-rule="evenodd" d="M6.20157 0.0240894C3.56953 0.340969 1.40793 2.01706 0.450901 4.48302C-0.0891419 5.87455 -0.146851 7.49488 0.292737 8.92586C0.365451 9.16263 0.490024 9.50604 0.569544 9.689C0.795607 10.209 5.92261 19.4184 6.09355 19.6114C6.17677 19.7054 6.34596 19.8307 6.47165 19.8914C6.66066 19.9826 6.74949 20.001 6.99756 20C7.3835 19.9984 7.65151 19.8861 7.88426 19.6286C8.06937 19.4238 13.1723 10.2717 13.4225 9.69585C13.9168 8.55822 14.104 7.26202 13.9444 6.08322C13.5267 2.99791 11.204 0.581534 8.17166 0.0776658C7.73661 0.00538273 6.61115 -0.0252211 6.20157 0.0240894ZM7.85326 3.56044C8.30491 3.70188 8.6407 3.90788 9.00757 4.26863C9.37126 4.62625 9.58045 4.95409 9.73177 5.40368C9.82482 5.68013 9.83716 5.77859 9.83716 6.24509C9.83716 6.71158 9.82482 6.81005 9.73177 7.0865C9.58045 7.53609 9.37126 7.86392 9.00757 8.22154C8.64388 8.57916 8.31048 8.78486 7.85326 8.93365C7.57211 9.02515 7.47198 9.03728 6.99756 9.03728C6.52315 9.03728 6.42301 9.02515 6.14187 8.93365C5.68692 8.7856 5.35403 8.58014 4.98783 8.22143C4.62406 7.86506 4.41539 7.53816 4.26336 7.0865C4.17035 6.81012 4.15797 6.71146 4.15789 6.24509C4.15781 5.78376 4.17063 5.67872 4.25902 5.41671C4.41647 4.9499 4.62554 4.61796 4.98417 4.26531C5.42344 3.83337 5.92221 3.57065 6.50007 3.46687C6.84939 3.40409 7.49705 3.4489 7.85326 3.56044Z" fill="#EDBA36"/>
</svg>
