<svg width="20" height="20" viewBox="0 0 20 20" fill="none" xmlns="http://www.w3.org/2000/svg">
<path d="M5.70313 6.09374H14.2976C14.6212 6.09374 14.8835 5.8314 14.8835 5.5078V3.75001C14.8835 3.42642 14.6212 3.16407 14.2976 3.16407H11.6578C11.416 2.482 10.7643 1.99219 10.0004 1.99219C9.2364 1.99219 8.58475 2.482 8.34292 3.16407H5.70313C5.37953 3.16407 5.11719 3.42642 5.11719 3.75001V5.5078C5.11719 5.83144 5.37953 6.09374 5.70313 6.09374Z" fill="#FF008A"/>
<path d="M5.87891 12.1484C6.36431 12.1484 6.75781 11.7549 6.75781 11.2695C6.75781 10.7841 6.36431 10.3906 5.87891 10.3906C5.3935 10.3906 5 10.7841 5 11.2695C5 11.7549 5.3935 12.1484 5.87891 12.1484Z" fill="#FF008A"/>
<path d="M19.414 4.33594H16.055V5.50786C16.055 6.47713 15.2665 7.26569 14.2972 7.26569H5.70278C4.73347 7.26569 3.94495 6.47713 3.94495 5.50786V4.33594H0.585942C0.262307 4.33594 0 4.59828 0 4.92188V17.4224C0 17.746 0.262307 18.0083 0.585942 18.0083H19.414C19.7376 18.0083 20 17.746 20 17.4224V4.92188C20 4.59828 19.7376 4.33594 19.414 4.33594ZM12.93 9.51192H15.3121C15.6357 9.51192 15.898 9.77426 15.898 10.0979C15.898 10.4215 15.6357 10.6838 15.3121 10.6838H12.93C12.6064 10.6838 12.3441 10.4215 12.3441 10.0979C12.3441 9.77426 12.6064 9.51192 12.93 9.51192ZM8.22272 15.6644H3.53518C3.21155 15.6644 2.94924 15.4021 2.94924 15.0785C2.94924 14.0358 3.49717 13.1192 4.31984 12.5999C4.01362 12.2415 3.82815 11.7771 3.82815 11.2699C3.82815 10.139 4.74816 9.21906 5.87895 9.21906C7.00974 9.21906 7.92974 10.139 7.92974 11.2699C7.92974 11.7771 7.74427 12.2415 7.43806 12.5999C8.26072 13.1192 8.80866 14.0358 8.80866 15.0785C8.80866 15.4021 8.54631 15.6644 8.22272 15.6644ZM16.4841 15.3716H11.758C11.4344 15.3716 11.1721 15.1092 11.1721 14.7856C11.1721 14.462 11.4344 14.1997 11.758 14.1997H16.4841C16.8077 14.1997 17.07 14.462 17.07 14.7856C17.07 15.1092 16.8077 15.3716 16.4841 15.3716ZM16.4841 13.0277H11.758C11.4344 13.0277 11.1721 12.7653 11.1721 12.4417C11.1721 12.1181 11.4344 11.8558 11.758 11.8558H16.4841C16.8077 11.8558 17.07 12.1181 17.07 12.4417C17.07 12.7653 16.8077 13.0277 16.4841 13.0277Z" fill="#FF008A"/>
<path d="M5.8791 13.3203C5.11516 13.3203 4.46352 13.8101 4.22168 14.4922H7.53648C7.29469 13.8101 6.64305 13.3203 5.8791 13.3203Z" fill="#FF008A"/>
</svg>
