<svg width="84" height="84" viewBox="0 0 84 84" fill="none" xmlns="http://www.w3.org/2000/svg">
<path fill-rule="evenodd" clip-rule="evenodd" d="M26.1199 14.0315C23.0508 14.4927 20.9573 15.4989 18.9771 17.4647C17.3478 19.0819 16.3362 20.853 15.7724 23.075C15.4517 24.339 15.3676 26.5845 15.5927 27.8699C16.0135 30.2722 17.2021 32.5967 18.8445 34.2296C20.5012 35.8766 22.8877 37.0898 25.2639 37.4928C25.5837 37.5471 25.9294 37.6096 26.0321 37.6317C26.1608 37.6595 26.2714 37.8211 26.3882 38.1518C26.9026 39.6084 28.4663 42.1768 29.807 43.7669C30.779 44.9195 32.2978 46.3482 33.1933 46.9518L33.9191 47.441L34.0249 48.4854C34.5971 54.1379 37.1013 59.7663 40.4076 62.8313C40.7867 63.1827 41.0618 63.4692 41.0189 63.4682C40.4683 63.4531 35.9145 62.9197 35.8636 62.8644C35.8255 62.823 35.2708 61.5631 34.6307 60.0646C33.9907 58.5661 33.1262 56.5432 32.7096 55.5691C32.293 54.5951 31.3685 52.4291 30.6551 50.7558C29.0145 46.9076 28.4231 45.6911 27.5866 44.444C25.4907 41.3198 22.8174 39.4899 19.3383 38.7983C18.7425 38.6798 18.1123 38.6381 16.9711 38.6416C14.6716 38.6488 12.9521 38.9947 11.2285 39.7969C7.95143 41.3222 5.72333 44.0037 4.38641 48.0313C3.79484 49.8135 3.54746 51.0563 3.16614 54.1615C2.76523 57.4255 2.67988 58.0936 2.56826 58.8386C2.51959 59.1632 2.45719 59.6741 2.42966 59.9738C2.40203 60.2735 2.33762 60.8252 2.28648 61.1998C2.23533 61.5744 2.15336 62.2487 2.10432 62.6983C2.05528 63.1478 1.99499 63.6007 1.97029 63.7047C1.94568 63.8086 1.61678 66.322 1.23948 69.29C0.862183 72.2579 0.428991 75.6455 0.276754 76.8179C0.124518 77.9904 0 78.961 0 78.9748C0 78.9886 5.68142 79 12.6254 79H25.2508V77.6261V76.2521L24.679 75.6497C23.501 74.4086 22.4288 72.7405 21.6351 70.9139C21.408 70.3912 20.8356 69.1872 20.3632 68.2382C19.3735 66.2501 16.1537 59.7364 15.4126 58.223C15.0665 57.5163 14.9467 57.1869 15.0261 57.1605C15.3043 57.0682 18.2165 56.2957 18.2865 56.2957C18.3292 56.2957 18.4783 56.5511 18.618 56.8633C18.7576 57.1755 19.3924 58.473 20.0288 59.7467C20.6651 61.0204 21.3033 62.3282 21.4471 62.6529C21.5909 62.9776 22.2349 64.3058 22.8784 65.6045C23.5218 66.9031 24.3158 68.5225 24.6427 69.203C25.3271 70.6273 25.857 71.4732 26.5238 72.2061C27.3905 73.1586 28.7758 73.8985 30.0615 74.0958C30.491 74.1616 33.9424 74.1834 40.8038 74.1635C52.0068 74.131 51.3493 74.1662 52.6709 73.5294C53.8296 72.9712 54.7277 71.8265 54.9899 70.5739C55.0566 70.2548 55.0822 69.6062 55.0563 68.8926L55.014 67.7307L55.2966 67.793C57.7572 68.3357 59.7914 65.8335 58.6961 63.6112C58.4139 63.0386 57.7928 62.4413 57.1963 62.1689C56.5874 61.8908 55.3903 61.8927 54.777 62.1726C54.2671 62.4053 53.5126 63.1388 53.3349 63.5746C53.2667 63.742 53.1673 63.909 53.1142 63.9457C52.937 64.0679 50.0312 64.0198 49.175 63.8803C46.1622 63.3897 43.437 61.9891 41.6972 60.0371C39.5888 57.6716 37.6017 52.9222 37.0034 48.8187C36.8138 47.5181 36.8656 46.8314 37.2286 45.8286C37.7599 44.3613 37.9098 43.448 37.9108 41.6741C37.9116 40.3186 37.8806 39.9578 37.6996 39.222C37.4599 38.2471 37.0755 37.224 36.9488 37.224C36.9024 37.224 36.6513 37.3912 36.3908 37.5957C36.1303 37.8001 35.6008 38.1484 35.2144 38.3697L34.5116 38.7721L34.6746 39.2922C34.9503 40.1717 35.0665 41.1921 35.0033 42.1801C34.9464 43.0699 34.6894 44.3532 34.5681 44.3532C34.4476 44.3532 33.149 43.1602 32.544 42.4938C29.8529 39.5292 27.792 34.6239 26.9213 29.1101C26.8568 28.7021 26.8261 28.6614 26.4973 28.5493C25.7011 28.2777 25.2252 27.4581 25.4285 26.7085C25.7009 25.7044 26.7129 25.2438 27.6843 25.6816C28.3064 25.9622 28.4751 26.2937 28.5541 27.3915C28.6252 28.3821 28.6813 28.8254 28.8209 29.5046C29.3747 32.1968 29.7606 33.5652 30.4748 35.3692C30.7728 36.1222 31.0729 36.8145 31.1414 36.9075C31.2611 37.07 31.3004 37.0626 32.1143 36.7237C34.4044 35.7704 36.7748 33.6132 37.9014 31.4571C40.1719 27.1122 39.6842 22.1369 36.6148 18.3287C34.9611 16.2769 32.4407 14.7743 29.688 14.1989C28.9807 14.0511 26.7012 13.9441 26.1199 14.0315Z" fill="#9327FF"/>
<path fill-rule="evenodd" clip-rule="evenodd" d="M58.7763 0.0858391C54.3732 0.51233 50.4342 3.541 48.7762 7.77462C48.1811 9.29423 47.8849 11.4646 48.0414 13.1583C48.3823 16.845 50.2525 20.0127 53.3398 22.1324C57.0742 24.6964 61.9134 24.8844 65.9334 22.6216C67.8621 21.5361 69.7441 19.5425 70.7449 17.5249C72.1792 14.6332 72.386 11.1623 71.3084 8.06484C69.7695 3.64154 65.7749 0.52816 61.0618 0.078618C59.9504 -0.0273799 59.9447 -0.0273796 58.7763 0.0858391ZM68.788 24.9215C67.4431 25.233 66.2647 25.8612 65.2147 26.8263C64.1938 27.7646 63.6906 28.3668 62.3865 30.2108C61.0235 32.1381 60.3937 32.9133 59.2682 34.0492C57.456 35.8781 55.4843 37.4606 52.4158 39.5493C50.5225 40.838 49.5996 41.8627 49.0304 43.3087C48.684 44.1885 48.5951 44.6831 48.5934 45.7411C48.5906 47.4301 49.1002 48.7268 50.1995 49.8282C51.3559 50.9867 52.714 51.524 54.7434 51.6258L55.8754 51.6825L54.8135 52.6374C52.1768 55.0088 49.6018 58.2617 48.2744 60.8982L48.0456 61.3528L48.2532 61.3953C48.3673 61.4187 48.9893 61.4879 49.6352 61.549L50.8098 61.6601L51.3368 61.1004C53.1364 59.1894 55.7783 58.7189 58.1137 59.8934C59.3452 60.513 60.1154 61.3394 60.7863 62.7611C61.29 63.829 61.3813 65.0565 61.0671 66.5408C60.757 68.0055 59.4161 69.5937 57.9314 70.2547C57.6195 70.3935 57.5206 70.488 57.5206 70.647C57.5206 71.0201 57.1377 72.4034 56.8674 73.0067C56.2146 74.4644 54.9784 75.7377 53.5203 76.4544C52.6254 76.8944 51.0844 77.3651 50.4954 77.3785C50.3375 77.3821 50.1255 77.418 50.0243 77.4584C49.8612 77.5234 49.944 77.6382 50.7543 78.4702L51.6683 79.4086L57.7907 79.4071L63.9131 79.4054L65.3331 74.9866C66.1141 72.5563 67.0193 69.7346 67.3447 68.7163C67.6701 67.6979 67.9697 66.7815 68.0106 66.6796C68.1344 66.3707 68.725 64.4857 68.8373 64.0412C68.8951 63.8121 68.9971 63.4997 69.064 63.3469C69.2533 62.9142 70.0144 60.5145 70.077 60.1531C70.1378 59.8023 70.0483 59.3047 69.4275 56.5427C69.2045 55.5498 68.6479 53.0752 68.1909 51.0435C67.7337 49.0118 67.3707 47.3418 67.384 47.3325C67.4766 47.2672 70.1669 46.3741 70.1927 46.4001C70.2267 46.4344 70.5442 47.8274 72.0615 54.5986C72.5692 56.8644 73.0608 59.0131 73.1541 59.3734L73.3235 60.0288L73.0635 60.8084C72.9205 61.2372 72.4478 62.7128 72.0132 64.0875C71.5785 65.4623 71.1798 66.712 71.1272 66.8648C71.0746 67.0175 70.1609 69.8503 69.0969 73.1598C66.9331 79.8899 66.908 79.9989 67.2578 81.1329C67.6144 82.2895 68.3365 83.0002 69.7377 83.5741C71.5869 84.3316 73.2451 84.072 74.3702 82.8489C74.8709 82.3045 74.9835 82.0835 76.3118 79.0383C76.5895 78.4019 77.1262 77.173 77.5046 76.3074C78.0811 74.9885 80.6231 69.1332 80.8806 68.5311C80.9241 68.4293 81.1081 68.0215 81.2894 67.625C81.4706 67.2284 81.619 66.8514 81.619 66.7872C81.619 66.7229 81.6556 66.6308 81.7003 66.5824C81.745 66.5341 81.9769 66.0154 82.2155 65.4299C82.4541 64.8443 82.8074 63.9903 83.0006 63.5321C83.5124 62.3182 83.7028 61.6719 83.8787 60.5506C84.226 58.3375 83.8278 53.8612 82.6779 47.0538C81.1537 38.03 79.379 31.2712 77.8527 28.6778C76.8671 27.0032 75.0082 25.6396 72.9242 25.0628C71.985 24.8028 69.6456 24.7229 68.788 24.9215Z" fill="#EDBA36"/>
</svg>
