<svg width="84" height="84" viewBox="0 0 84 84" fill="none" xmlns="http://www.w3.org/2000/svg">
<path fill-rule="evenodd" clip-rule="evenodd" d="M28.8931 0.240609C21.3266 1.17776 14.5779 4.54401 9.25989 10.0339C6.60178 12.7778 4.89881 15.2083 3.26761 18.5855C-1.0892 27.6062 -1.0892 38.0725 3.26761 47.0932C8.26978 57.4499 18.1399 64.3305 29.6907 65.5132C37.1323 66.2751 44.8051 64.3228 51.209 60.0379C52.2354 59.3511 53.1234 58.7892 53.1818 58.7892C53.344 58.7892 58.4586 63.9457 58.4586 64.1089C58.4586 64.1873 58.1999 64.5378 57.8838 64.8878C56.7455 66.1476 56.3187 65.5914 65.3983 74.6833C72.986 82.2814 73.5637 82.8216 74.7112 83.392C75.8649 83.9653 76.0239 84 77.5035 84C78.9242 84 79.176 83.9509 80.1696 83.4802C81.6967 82.7569 82.6477 81.8258 83.3865 80.3309C83.9662 79.1582 84 79.003 84 77.5125C84 76.0232 83.966 75.867 83.3919 74.7119C82.8215 73.5645 82.2812 72.9869 74.6826 65.3999C65.5898 56.321 66.1462 56.7477 64.8862 57.8859C64.5362 58.2021 64.184 58.4607 64.1035 58.4607C63.9329 58.4607 58.7871 53.3389 58.7871 53.1689C58.7871 53.106 59.3297 52.2481 59.9928 51.2625C62.7841 47.1134 64.4941 42.7363 65.2973 37.6844C65.6506 35.4615 65.6932 30.6507 65.3793 28.4049C64.7298 23.7577 62.7267 18.4262 60.239 14.7233C58.4251 12.0233 55.314 8.66692 52.9562 6.86603C46.048 1.59033 37.3449 -0.805926 28.8931 0.240609ZM37.7627 3.02299C49.7665 5.0075 59.3758 14.0067 62.2347 25.9413C62.9672 28.9991 63.2139 32.7318 62.8839 35.761C61.734 46.3174 55.6538 55.1802 46.3662 59.8381C36.1064 64.9834 23.9494 63.878 14.6615 56.9555C3.59267 48.7054 -0.38193 33.7783 5.06684 20.922C8.16432 13.6137 14.5196 7.49491 21.9944 4.62466C24.1512 3.7964 27.0188 3.10018 29.5501 2.78994C31.256 2.58102 35.8832 2.71225 37.7627 3.02299Z" fill="#9327FF"/>
<circle cx="32.75" cy="32.75" r="26.75" fill="white" stroke="#9327FF" stroke-width="2"/>
<path fill-rule="evenodd" clip-rule="evenodd" d="M42.9369 15.5081C42.5756 15.6431 42.2458 15.7546 42.204 15.7559C42.0142 15.7622 14.8817 42.9905 14.6737 43.3835C14.3544 43.9871 14.3787 44.3794 14.7662 44.8718C15.2174 45.4455 16.6259 46.3468 17.8062 46.8174L18.7917 47.2103L32.6314 47.2576L46.471 47.3047L46.8803 46.8954C47.4199 46.3559 47.4225 45.6037 46.8864 45.0677L46.4833 44.6645H36.4171H26.3508L29.2471 41.7493C30.84 40.146 32.2252 38.6726 32.325 38.4753C32.6371 37.8596 32.5289 37.4546 31.8584 36.7272L31.2098 36.0237L39.0049 28.2314C47.4687 19.7707 47.4084 19.8438 47.2532 18.229C47.0556 16.1726 44.8615 14.7894 42.9369 15.5081Z" fill="#EDBA36"/>
</svg>
