<svg width="19" height="19" viewBox="0 0 19 19" fill="none" xmlns="http://www.w3.org/2000/svg">
<path d="M16.7917 4.29166H14.7083V3.25C14.7083 2.4212 14.3791 1.62634 13.793 1.04029C13.207 0.45424 12.4121 0.125 11.5833 0.125H7.41666C6.58786 0.125 5.793 0.45424 5.20695 1.04029C4.6209 1.62634 4.29166 2.4212 4.29166 3.25V4.29166H2.20833C1.6563 4.29331 1.12736 4.51334 0.737015 4.90368C0.346671 5.29402 0.126649 5.82297 0.125 6.375V16.7917C0.126649 17.3437 0.346671 17.8726 0.737015 18.263C1.12736 18.6533 1.6563 18.8733 2.20833 18.875H16.7917C17.3437 18.8733 17.8726 18.6533 18.263 18.263C18.6533 17.8726 18.8733 17.3437 18.875 16.7917V6.375C18.8733 5.82297 18.6533 5.29402 18.263 4.90368C17.8726 4.51334 17.3437 4.29331 16.7917 4.29166ZM6.375 3.25C6.375 2.97373 6.48474 2.70878 6.68009 2.51343C6.87544 2.31808 7.14039 2.20833 7.41666 2.20833H11.5833C11.8596 2.20833 12.1245 2.31808 12.3199 2.51343C12.5152 2.70878 12.625 2.97373 12.625 3.25V4.29166H6.375V3.25ZM12.625 12.625H10.5417V14.7083H8.45833V12.625H6.375V10.5417H8.45833V8.45833H10.5417V10.5417H12.625V12.625Z" fill="#FF008A"/>
</svg>
