<svg width="20" height="20" viewBox="0 0 20 20" fill="none" xmlns="http://www.w3.org/2000/svg">
<path fill-rule="evenodd" clip-rule="evenodd" d="M9.73933 0.0409859C9.59445 0.108084 9.46455 0.246114 9.40948 0.3915C9.38382 0.459185 9.36775 0.891743 9.36775 1.51351V2.52538L9.14284 2.55128C5.6961 2.94815 2.93967 5.70466 2.54333 9.15103L2.51764 9.37424L1.44741 9.38578C0.437175 9.39666 0.371072 9.40186 0.26922 9.47799C0.0639901 9.63136 0 9.75636 0 10.0037C0 10.2511 0.0639901 10.3761 0.26922 10.5295C0.371072 10.6056 0.437175 10.6108 1.44741 10.6217L2.51764 10.6333L2.54333 10.8565C2.93956 14.302 5.69649 17.0597 9.14108 17.456L9.36423 17.4817L9.37577 18.5522C9.38664 19.5627 9.39184 19.6288 9.46796 19.7307C9.62128 19.936 9.74625 20 9.99357 20C10.2409 20 10.3659 19.936 10.5192 19.7307C10.5953 19.6288 10.6005 19.5627 10.6114 18.5522L10.6229 17.4817L10.8461 17.456C14.2906 17.0597 17.0476 14.302 17.4438 10.8565L17.4695 10.6333L18.5397 10.6217C19.55 10.6108 19.6161 10.6056 19.7179 10.5295C19.8885 10.402 19.9746 10.2611 19.9955 10.0755C20.0212 9.84835 19.9359 9.65198 19.75 9.51008L19.6023 9.39732L18.5359 9.38578L17.4695 9.37424L17.4438 9.15103C17.0476 5.70552 14.2906 2.94784 10.8461 2.55151L10.6229 2.52581L10.6114 1.45529C10.6005 0.444788 10.5953 0.378668 10.5192 0.276788C10.4748 0.217397 10.3925 0.134454 10.3363 0.0924735C10.2067 -0.00431995 9.8952 -0.0311983 9.73933 0.0409859ZM10.6098 3.78338C12.0711 3.93737 13.3819 4.55968 14.409 5.58709C16.0942 7.27268 16.6743 9.74701 15.9123 11.9991C15.599 12.9252 15.0994 13.7299 14.409 14.4204C12.7239 16.106 10.2502 16.6863 7.99877 15.9241C6.14297 15.2959 4.70288 13.8554 4.07483 11.9991C3.79681 11.1774 3.69214 10.3273 3.76779 9.50491C3.82474 8.88565 3.89667 8.5349 4.07483 8.00841C4.70288 6.1522 6.14161 4.71297 7.99877 4.08319C8.85743 3.79199 9.73518 3.6912 10.6098 3.78338ZM9.25041 6.33103C8.80838 6.42341 8.31676 6.62517 7.9401 6.8688C7.58936 7.09564 7.08624 7.5989 6.85946 7.94972C6.48115 8.53494 6.23865 9.33727 6.23865 10.0037C6.23865 10.6702 6.48115 11.4726 6.85946 12.0578C7.08624 12.4086 7.58936 12.9119 7.9401 13.1387C8.52516 13.5171 9.32727 13.7597 9.99357 13.7597C10.6599 13.7597 11.462 13.5171 12.047 13.1387C12.3978 12.9119 12.9009 12.4086 13.1277 12.0578C13.506 11.4726 13.7485 10.6702 13.7485 10.0037C13.7485 9.33727 13.506 8.53494 13.1277 7.94972C12.9009 7.5989 12.3978 7.09564 12.047 6.8688C11.216 6.33123 10.1918 6.13428 9.25041 6.33103Z" fill="#827C8A"/>
</svg>
