<svg width="84" height="84" viewBox="0 0 84 84" fill="none" xmlns="http://www.w3.org/2000/svg">
<g clip-path="url(#clip0_2617_202)">
<path d="M82.9038 46.1917C80.2802 44.4137 77.1889 44.9174 74.4515 46.4975C71.714 48.0776 55.9967 61.5161 55.9967 61.5161L40.5254 61.5191C39.8058 61.5191 39.0262 60.7096 39.0262 59.993C39.0262 59.1504 39.7608 58.4938 40.5254 58.4938H49.9911C53.3043 58.4938 57.0132 56.335 57.0132 52.4971C57.0132 48.4194 53.3043 46.5005 49.9911 46.5005C44.2433 46.5005 43.1249 46.5245 43.1249 46.5245C40.8222 46.5245 38.4865 46.3866 36.6875 45.4241C34.2889 44.1948 31.5244 43.4992 28.5741 43.4992C23.6208 43.4992 19.1863 45.4751 16.146 48.5903C16.146 48.5903 0.499768 60.9748 5.98934e-06 64.4875C-0.499756 68.0001 15.4998 83.5001 17.99 82.4774C20.4801 81.4547 23.9866 76.4808 23.9866 76.4808H54.3507C57.373 76.4808 60.2904 75.3714 62.5481 73.3655L83.1076 50.3024C84.3639 49.187 84.292 47.1361 82.9038 46.1917Z" fill="#9327FF"/>
<path d="M43.1732 34.4719C43.9099 35.1188 44.6704 35.7862 45.4527 36.4781C45.458 36.4828 45.4635 36.4876 45.4689 36.4923L48.0714 38.7403C48.4201 39.0416 48.8528 39.1921 49.2856 39.1921C49.7184 39.1921 50.1512 39.0414 50.4999 38.7403L53.1019 36.4923C53.1074 36.4876 53.1127 36.4829 53.118 36.4782C58.2698 31.9221 62.1325 28.434 64.927 25.0321C68.1909 21.059 69.7112 17.4665 69.7112 13.7266C69.7112 6.96026 64.411 1.66008 57.6449 1.66008C54.6039 1.66008 51.5991 2.80518 49.2856 4.79016C46.9715 2.80505 43.9667 1.66008 40.9255 1.66008C34.1592 1.65995 28.8589 6.96026 28.8589 13.7265C28.8589 21.9055 34.5534 26.9047 43.1732 34.4719ZM41.8557 16.7116H46.8084V11.7586H51.7614V16.7116H56.7143V21.6644H51.7614V26.6172H46.8084V21.6644H41.8557V16.7116Z" fill="#EDBA36"/>
</g>
<defs>
<clipPath id="clip0_2617_202">
<rect width="84" height="84" fill="white"/>
</clipPath>
</defs>
</svg>
