<svg width="72" height="84" viewBox="0 0 72 84" fill="none" xmlns="http://www.w3.org/2000/svg">
<path d="M51.2906 2.90391C35.2781 -2.41172 15.8695 -1.16484 9.42187 18.2437C8.73281 20.3109 8.25703 23.8055 8.37187 26.0367C8.65078 31.9922 6.43593 36.9141 1.38281 41.5242C-0.421879 43.1813 -0.389067 46.1016 2.35078 47.5781C3.79453 48.2508 4.66406 48.9891 4.92656 49.793C5.10703 50.4 4.97578 51.0727 4.5164 51.8602C3.86015 52.9758 4.00781 54.3375 4.86093 55.2563C5.17265 55.6008 5.23828 56.0766 5.025 56.5031C5.00859 56.5852 4.18828 57.8648 5.0414 59.3086C5.74687 60.4734 6.45234 60.5883 6.25546 61.4414C5.89453 62.8523 5.61562 64.4273 5.40234 66.0844C4.91015 70.1531 8.24062 73.7133 12.375 73.4836C15.7711 73.3031 19.3805 72.8602 23.4492 72.1219C24.6797 71.8922 26.1562 72.1711 26.5664 73.3688C26.8125 74.2711 27.2719 76.3219 27.8789 79.3242C28.4039 81.9164 30.7008 83.8031 33.3422 83.8031H55.8187C59.5266 83.8031 62.2336 80.2266 61.1508 76.6008C58.2141 66.6258 59.4445 58.2914 64.957 51.1547L64.9898 51.1219C78.5414 31.9758 71.0273 9.43359 51.2906 2.90391Z" fill="#9327FF"/>
</svg>
