<svg width="30" height="30" viewBox="0 0 30 30" fill="none" xmlns="http://www.w3.org/2000/svg">
<path fill-rule="evenodd" clip-rule="evenodd" d="M29.2731 13.8457L25.8688 12.3047L16.4001 16.5967C15.9548 16.793 15.486 16.8984 14.9997 16.8984C14.5134 16.8984 14.0505 16.793 13.5993 16.5996L4.13057 12.3047L0.725098 13.8457C-0.241699 14.2852 -0.241699 15.75 0.725098 16.1895L14.3774 22.377C14.7729 22.5601 15.2271 22.5601 15.6226 22.377L29.2749 16.1895C30.2399 15.75 30.2399 14.2852 29.2731 13.8457ZM0.72544 8.6748L14.3778 14.874C14.7733 15.0498 15.2274 15.0498 15.6229 14.874L29.2735 8.6748C30.2403 8.23535 30.2403 6.77051 29.2735 6.33105L15.6211 0.131836C15.2256 -0.0439453 14.7715 -0.0439453 14.376 0.131836L0.72544 6.33105C-0.24165 6.77051 -0.24165 8.23535 0.72544 8.6748ZM29.2735 21.335L25.8821 19.7969L16.3958 24.0965C15.9552 24.2939 15.4864 24.3994 15.0001 24.3994C14.5138 24.3994 14.0479 24.2969 13.6009 24.0991L4.11455 19.7995L0.723145 21.3376C-0.243652 21.7771 -0.243652 23.2419 0.723145 23.6813L14.3755 29.8688C14.771 30.0446 15.2251 30.0446 15.6206 29.8688L29.2729 23.6813C30.2403 23.2393 30.2403 21.7744 29.2735 21.335Z" fill="#9327FF"/>
</svg>
