<svg width="7" height="12" viewBox="0 0 7 12" fill="none" xmlns="http://www.w3.org/2000/svg">
<path fill-rule="evenodd" clip-rule="evenodd" d="M6.97993 0.623647C6.92138 0.387508 6.73301 0.173302 6.48969 0.0661882C6.36731 0.012323 6.31486 0.00285091 6.14148 0.00333022C5.75745 0.00438013 6.01681 -0.21471 2.91897 2.72537C1.05063 4.49859 0.145607 5.37291 0.105214 5.44372C0.0109076 5.60903 -0.0222325 5.80427 0.0148702 5.97602C0.0318251 6.05449 0.0724816 6.16565 0.105214 6.22303C0.145607 6.29383 1.05063 7.16815 2.91897 8.94137C6.01708 11.8817 5.75762 11.6625 6.14148 11.6632C6.31532 11.6635 6.36782 11.6539 6.49531 11.5985C6.93642 11.407 7.12301 10.8964 6.90479 10.4781C6.87379 10.4186 6.0226 9.59273 4.46435 8.11009L2.07151 5.83337L4.46435 3.55665C6.0287 2.06822 6.87359 1.24832 6.90462 1.18864C6.99492 1.0149 7.02359 0.799691 6.97993 0.623647Z" fill="#28252C"/>
</svg>
