<svg width="7" height="12" viewBox="0 0 7 12" fill="none" xmlns="http://www.w3.org/2000/svg">
<path fill-rule="evenodd" clip-rule="evenodd" d="M0.0200687 11.3764C0.078617 11.6125 0.26699 11.8267 0.510309 11.9338C0.632688 11.9877 0.685137 11.9971 0.858524 11.9967C1.24255 11.9956 0.983185 12.2147 4.08103 9.27463C5.94937 7.50141 6.85439 6.62709 6.89479 6.55628C6.98909 6.39097 7.02223 6.19573 6.98513 6.02398C6.96817 5.94551 6.92752 5.83435 6.89479 5.77697C6.85439 5.70617 5.94937 4.83185 4.08103 3.05863C0.982921 0.118299 1.24238 0.337457 0.858524 0.336795C0.684681 0.336498 0.632184 0.346085 0.504689 0.401456C0.0635839 0.593042 -0.123012 1.10362 0.0952112 1.5219C0.126214 1.58136 0.977398 2.40727 2.53565 3.88991L4.92849 6.16663L2.53565 8.44335C0.971298 9.93178 0.126407 10.7517 0.0953794 10.8114C0.00508346 10.9851 -0.0235903 11.2003 0.0200687 11.3764Z" fill="#28252C"/>
</svg>
