<svg width="18" height="18" viewBox="0 0 18 18" fill="none" xmlns="http://www.w3.org/2000/svg">
<path fill-rule="evenodd" clip-rule="evenodd" d="M17.953 6.88449C17.8352 6.52008 17.5119 6.26125 17.1295 6.22679L11.9342 5.75514L9.87982 0.947587C9.72835 0.595255 9.38337 0.367188 9.00007 0.367188C8.61678 0.367188 8.2718 0.595255 8.12032 0.948411L6.06597 5.75514L0.869861 6.22679C0.488077 6.26208 0.165621 6.52008 0.0471027 6.88449C-0.0714151 7.24891 0.0380388 7.64861 0.326849 7.90057L4.25387 11.344L3.09588 16.444C3.01115 16.819 3.15672 17.2066 3.46791 17.4315C3.63518 17.5523 3.83088 17.6138 4.02823 17.6138C4.19838 17.6138 4.36717 17.568 4.51864 17.4774L9.00007 14.7994L13.4799 17.4774C13.8077 17.6745 14.2209 17.6565 14.5314 17.4315C14.8427 17.2059 14.9882 16.8181 14.9034 16.444L13.7455 11.344L17.6725 7.90125C17.9613 7.64861 18.0716 7.24959 17.953 6.88449Z" fill="white"/>
</svg>
