<svg width="9" height="9" viewBox="0 0 9 9" fill="none" xmlns="http://www.w3.org/2000/svg">
<mask id="mask0_2926_11" style="mask-type:luminance" maskUnits="userSpaceOnUse" x="0" y="0" width="9" height="9">
<rect width="9" height="9" fill="white"/>
</mask>
<g mask="url(#mask0_2926_11)">
<path fill-rule="evenodd" clip-rule="evenodd" d="M8.97652 3.44371C8.91761 3.2615 8.75597 3.13209 8.56473 3.11486L5.96709 2.87903L4.93991 0.475258C4.86417 0.299093 4.69168 0.185059 4.50004 0.185059C4.30839 0.185059 4.1359 0.299093 4.06016 0.47567L3.03298 2.87903L0.43493 3.11486C0.244038 3.1325 0.0828103 3.2615 0.0235514 3.44371C-0.0357075 3.62592 0.0190194 3.82577 0.163424 3.95175L2.12693 5.67345L1.54794 8.22346C1.50557 8.41095 1.57836 8.60476 1.73396 8.71721C1.81759 8.77763 1.91544 8.80838 2.01412 8.80838C2.09919 8.80838 2.18358 8.78545 2.25932 8.74014L4.50004 7.40119L6.73993 8.74014C6.90383 8.83873 7.11045 8.82974 7.2657 8.71721C7.42137 8.60441 7.49409 8.41054 7.45172 8.22346L6.87273 5.67345L8.83624 3.95209C8.98064 3.82577 9.03578 3.62626 8.97652 3.44371Z" fill="white"/>
</g>
</svg>
