<svg width="34" height="30" viewBox="0 0 34 30" fill="none" xmlns="http://www.w3.org/2000/svg">
<mask id="mask0_2617_184" style="mask-type:luminance" maskUnits="userSpaceOnUse" x="0" y="0" width="34" height="30">
<rect width="33.75" height="30" fill="white"/>
</mask>
<g mask="url(#mask0_2617_184)">
<path fill-rule="evenodd" clip-rule="evenodd" d="M28.125 6.56268C25.5363 6.56268 23.4375 8.66151 23.4375 11.2502C23.4375 13.1744 24.5982 14.8232 26.2564 15.5457V20.157C26.2564 23.5115 23.3121 26.2508 19.6939 26.2508C16.1783 26.2508 13.2896 23.6668 13.1373 20.4365C17.3496 19.5588 20.625 15.7795 20.625 11.1974V2.14413C20.625 1.47733 20.1475 0.891391 19.4953 0.767172L15.8086 0.0281582C15.0469 -0.12565 14.3121 0.36601 14.1586 1.12796L13.9688 2.05038C13.8149 2.81209 14.3093 3.54979 15.0709 3.70389L16.8691 4.05891V11.174C16.8691 14.2724 14.4006 16.8359 11.2951 16.8652C8.16738 16.8945 5.62266 14.3715 5.62266 11.2443L5.61855 4.06483L7.41855 3.7067C8.18027 3.56022 8.67305 2.81901 8.51895 2.05729L8.33789 1.13514C8.19141 0.373422 7.4502 -0.119351 6.68848 0.03475L3.00469 0.761313C2.35254 0.893148 1.875 1.4703 1.875 2.14413V11.2496C1.875 15.776 5.1041 19.5699 9.38086 20.4371C9.5332 25.7404 14.0977 30.0002 19.6875 30.0002C25.3711 30.0002 30 25.584 30 20.1564V15.5451C31.6541 14.8209 32.8125 13.1744 32.8125 11.2531C32.8125 8.66034 30.7148 6.56268 28.125 6.56268ZM28.125 12.6562C27.3486 12.6562 26.7188 12.0264 26.7188 11.25C26.7188 10.4736 27.3457 9.84375 28.125 9.84375C28.9043 9.84375 29.5312 10.4707 29.5312 11.25C29.5312 12.0293 28.9043 12.6562 28.125 12.6562Z" fill="#9327FF"/>
</g>
</svg>
