<svg width="20" height="20" viewBox="0 0 20 20" fill="none" xmlns="http://www.w3.org/2000/svg">
<path fill-rule="evenodd" clip-rule="evenodd" d="M6.86074 0.0407967C4.49169 0.286954 2.26916 1.72757 1.03597 3.81637C0.513162 4.70189 0.146216 5.80317 0.0269859 6.84433L0.00124971 7.06896L3.70437 7.06588C6.97958 7.0631 7.37816 7.05642 7.15364 7.00802C6.73238 6.91719 6.35949 6.70689 6.02231 6.37003C5.68086 6.02886 5.50887 5.73199 5.39527 5.28769C5.25448 4.73689 5.32739 4.13828 5.59862 3.61885C5.76217 3.30566 6.23609 2.83244 6.55558 2.66325C6.86504 2.4994 7.32892 2.38099 7.66134 2.38099C7.99196 2.38099 8.45596 2.49889 8.7671 2.66196C9.0839 2.82799 9.55769 3.30194 9.72367 3.61885C9.99517 4.13718 10.0683 4.7365 9.92741 5.28769C9.81673 5.72059 9.63928 6.02737 9.30158 6.36971C8.96998 6.70588 8.59796 6.91551 8.16903 7.00802C7.94444 7.05646 8.33716 7.0631 11.5764 7.06588L15.2377 7.06896L15.2375 6.98106C15.237 6.781 15.1119 6.08316 15.0044 5.67992C14.7711 4.80526 14.3704 3.95928 13.821 3.18185C13.4872 2.70966 12.583 1.795 12.121 1.46231C10.5711 0.346257 8.72422 -0.152816 6.86074 0.0407967ZM7.28377 3.62291C6.30404 3.97322 6.21835 5.3125 7.14654 5.76844C7.4626 5.92369 7.86008 5.92369 8.17614 5.76844C8.59507 5.56264 8.81181 5.20686 8.81181 4.72498C8.81181 4.39217 8.7307 4.16957 8.52348 3.93345C8.24347 3.61448 7.69305 3.47657 7.28377 3.62291ZM0.0255409 8.40699C0.0396001 8.49833 0.0973211 8.76202 0.153831 8.99298L0.256581 9.41295H2.5546C4.78064 9.41295 4.85742 9.41541 5.00672 9.49159C5.10596 9.54222 5.18891 9.6252 5.23952 9.72446C5.31591 9.87424 5.31813 9.95011 5.31813 12.3941V14.9095L5.64033 14.9933C7.07027 15.3653 8.30951 15.3644 9.70188 14.9904L10.0045 14.909V12.3938C10.0045 10.0014 10.0082 9.87155 10.0786 9.73337C10.1221 9.64813 10.2171 9.55195 10.3085 9.50054L10.4643 9.41295H12.7688H15.0734L15.1359 9.07112C15.1703 8.88313 15.2097 8.61943 15.2236 8.48512L15.2488 8.24096H7.62443H0L0.0255409 8.40699ZM8.52153 9.49159C8.69481 9.58004 8.83294 9.8051 8.83294 9.99894C8.83294 10.2975 8.54422 10.5849 8.24425 10.5849C8.06261 10.5849 7.82134 10.433 7.73542 10.2645C7.5912 9.98172 7.68172 9.67297 7.95787 9.50573C8.14486 9.39252 8.3188 9.38814 8.52153 9.49159ZM0.731978 10.8096C1.34234 12.1906 2.49809 13.4517 3.90245 14.2689L4.14653 14.411V12.498V10.5849H2.38964H0.632704L0.731978 10.8096ZM6.76413 10.6636C6.93741 10.752 7.07554 10.9771 7.07554 11.1709C7.07554 11.4695 6.78682 11.7569 6.48685 11.7569C6.30521 11.7569 6.06394 11.605 5.97802 11.4365C5.8338 11.1537 5.92432 10.845 6.20047 10.6777C6.38746 10.5645 6.5614 10.5601 6.76413 10.6636ZM11.1761 12.498V14.411L11.4202 14.2696C11.708 14.103 11.9559 13.9288 12.3213 13.6365L12.5878 13.4234L13.1591 13.9948L13.7304 14.5662L13.4887 14.818C13.3558 14.9564 13.2292 15.1166 13.2075 15.1738C13.1513 15.3216 13.1584 15.5325 13.2238 15.6558C13.2545 15.7138 14.2255 16.7045 15.3815 17.8573C17.6246 20.0943 17.5615 20.0408 17.8866 19.9812C18.0081 19.9589 18.1749 19.8106 18.9783 19.0105C19.991 18.0021 20.0402 17.9345 19.9851 17.6304C19.9608 17.4965 19.7297 17.2514 17.8614 15.3777C16.7083 14.2213 15.7175 13.25 15.6595 13.2193C15.5362 13.1539 15.3254 13.1467 15.1777 13.2029C15.1205 13.2247 14.9604 13.3513 14.822 13.4843L14.5703 13.726L14.0012 13.1567L13.4321 12.5874L13.6125 12.3659C13.9699 11.9269 14.4295 11.1912 14.609 10.7705L14.6882 10.5849H12.9321H11.1761V12.498ZM8.52153 11.8356C8.69481 11.924 8.83294 12.1491 8.83294 12.3429C8.83294 12.6415 8.54422 12.9289 8.24425 12.9289C8.06261 12.9289 7.82134 12.777 7.73542 12.6085C7.5912 12.3257 7.68172 12.017 7.95787 11.8497C8.14486 11.7365 8.3188 11.7321 8.52153 11.8356Z" fill="#EDBA36"/>
</svg>
