<svg width="24" height="24" viewBox="0 0 24 24" fill="none" xmlns="http://www.w3.org/2000/svg">
<mask id="mask0_2617_462" style="mask-type:luminance" maskUnits="userSpaceOnUse" x="0" y="0" width="24" height="24">
<rect x="0.5" y="0.5" width="23" height="22.9067" fill="white"/>
</mask>
<g mask="url(#mask0_2617_462)">
<path fill-rule="evenodd" clip-rule="evenodd" d="M23.5 4.85184C22.6447 5.22547 21.7333 5.47318 20.7831 5.59347C21.7606 5.01215 22.5067 4.0987 22.8574 2.99781C21.9461 3.539 20.9399 3.92126 19.8674 4.13458C19.002 3.21688 17.7686 2.64844 16.4231 2.64844C13.8127 2.64844 11.711 4.7588 11.711 7.34584C11.711 7.71798 11.7426 8.07598 11.8204 8.41672C7.90025 8.22628 4.43162 6.35512 2.10137 3.50461C1.69451 4.20761 1.45599 5.01215 1.45599 5.87833C1.45599 7.50466 2.29688 8.94641 3.55038 9.78108C2.79276 9.76671 2.04962 9.54775 1.42 9.20263C1.42 9.21701 1.42 9.23564 1.42 9.25427C1.42 11.5363 3.05438 13.4319 5.19775 13.8685C4.81388 13.9731 4.39562 14.0231 3.9615 14.0231C3.65963 14.0231 3.35488 14.006 3.06875 13.9429C3.67975 15.8027 5.41337 17.1699 7.47475 17.2143C5.8705 18.4642 3.83362 19.2173 1.6285 19.2173C1.24175 19.2173 0.870875 19.2 0.5 19.1528C2.58863 20.4943 5.06412 21.2603 7.7335 21.2603C16.4102 21.2603 21.154 14.1019 21.154 7.89704C21.154 7.68935 21.1469 7.48902 21.1367 7.28995C22.0726 6.62847 22.8589 5.80243 23.5 4.85184Z" fill="white"/>
</g>
</svg>
