<svg width="14" height="9" viewBox="0 0 14 9" fill="none" xmlns="http://www.w3.org/2000/svg">
<path d="M7.91904 0H1.53173C0.689278 0 0 0.689278 0 1.53173V6.69366C0 7.53611 0.689278 8.22539 1.53173 8.22539H7.91904C8.76149 8.22539 9.45077 7.53611 9.45077 6.69366V1.53173C9.45077 0.673961 8.76149 0 7.91904 0Z" fill="#761FCC"/>
<path d="M12.8667 0.844008C12.7748 0.859325 12.6829 0.905277 12.6063 0.951229L10.2168 2.32979V5.8834L12.6216 7.26195C13.0658 7.52235 13.6172 7.36918 13.8776 6.92497C13.9542 6.78712 14.0002 6.63394 14.0002 6.46546V1.73241C14.0002 1.16567 13.4641 0.706152 12.8667 0.844008Z" fill="#761FCC"/>
</svg>
