<svg width="22" height="22" viewBox="0 0 22 22" fill="none" xmlns="http://www.w3.org/2000/svg">
<mask id="mask0_2617_455" style="mask-type:luminance" maskUnits="userSpaceOnUse" x="0" y="0" width="22" height="22">
<rect x="0.650391" y="0.648438" width="20.7" height="20.7" fill="white"/>
</mask>
<g mask="url(#mask0_2617_455)">
<path fill-rule="evenodd" clip-rule="evenodd" d="M20.9239 6.02573C20.6852 5.13896 19.9861 4.43999 19.0995 4.20114C17.4796 3.75781 11.0002 3.75781 11.0002 3.75781C11.0002 3.75781 4.52083 3.75781 2.90106 4.18423C2.03143 4.42286 1.31532 5.13908 1.07658 6.02573C0.650391 7.64539 0.650391 11.0045 0.650391 11.0045C0.650391 11.0045 0.650391 14.3806 1.07658 15.9833C1.31544 16.87 2.01441 17.5691 2.90117 17.8079C4.53797 18.2511 11.0004 18.2511 11.0004 18.2511C11.0004 18.2511 17.4796 18.2511 19.0995 17.8248C19.9863 17.5862 20.6852 16.887 20.9241 16.0004C21.3503 14.3806 21.3503 11.0216 21.3503 11.0216C21.3503 11.0216 21.3674 7.64539 20.9239 6.02573Z" fill="white"/>
<path fill-rule="evenodd" clip-rule="evenodd" d="M8.9375 14.1051L14.3256 11.0018L8.9375 7.89844V14.1051Z" fill="#A9A9A9" fill-opacity="0.498039"/>
</g>
</svg>
