<svg width="178" height="46" viewBox="0 0 178 46" fill="none" xmlns="http://www.w3.org/2000/svg">
<path d="M5.85653 5.01821C5.34734 3.94595 4.92302 3.19537 4.58355 2.76647C4.24409 2.29467 3.79855 1.99444 3.24692 1.86577L0.764613 1.67276V0.643387H21.5778V1.67276H20.6231C20.2836 1.67276 19.8381 1.73709 19.2865 1.86577C18.7773 1.95155 18.5227 2.38045 18.5227 3.15248C18.5227 3.4956 18.6076 3.94595 18.7773 4.50353C18.947 5.01821 19.1167 5.5329 19.2865 6.04758L24.2511 18.014C24.6754 16.9846 25.3543 15.3119 26.2879 12.9958C27.2214 10.6369 27.964 8.64246 28.5156 7.01262C29.0672 5.38278 29.343 4.2033 29.343 3.47416C29.343 2.91658 29.2369 2.53057 29.0248 2.31612C28.855 2.10166 28.3459 1.9301 27.4972 1.80143L25.4604 1.67276V0.643387H36.0898V1.67276C35.8352 1.67276 35.5594 1.6942 35.2624 1.73709C35.0078 1.73709 34.4986 1.80143 33.7348 1.9301C33.0134 2.05877 32.3982 2.44479 31.889 3.08814C31.3798 3.7315 30.4251 5.83313 29.0248 9.39304C27.6669 12.9529 26.1818 16.7273 24.5693 20.7161C22.9993 24.7049 21.2172 28.8439 19.2228 33.1329C17.2709 37.422 15.4251 40.6387 13.6854 42.7833C11.9881 44.9278 9.69669 46 6.81127 46C5.11396 46 3.31495 45.2372 2.10124 44.263C0.887536 43.2887 0.498047 41.2405 0.498047 40C0.498047 38.2844 0.573666 36.5856 1.71935 35.3847C2.86503 34.1837 4.32896 33.5833 6.11113 33.5833C7.93574 33.5833 9.35723 34.1194 10.3756 35.1916C11.394 36.2639 11.9032 37.5292 11.9032 38.9874C11.9032 40.4457 11.5001 41.6252 10.6939 42.5259C9.88764 43.4266 9.48453 43.9627 9.48453 44.1343C9.86642 44.0914 10.2695 44.0485 10.6939 44.0056C11.6274 43.5767 12.5185 42.7618 13.3671 41.5609C14.2582 40.3599 15.0432 39.1161 15.7221 37.8294C16.4011 36.5427 17.1224 35.0201 17.8862 33.2616C16.9527 31.0313 15.7858 28.2863 14.3855 25.0266C13.0277 21.724 11.5001 18.0998 9.80277 14.1539C8.1479 10.208 6.83249 7.16274 5.85653 5.01821Z" fill="white"/>
<path d="M74.2111 31.1385H57.5351V27.021C56.5591 28.5651 55.3498 29.7446 53.9071 30.5595C52.5068 31.3744 50.5549 31.7819 48.0514 31.7819C45.1235 31.7819 42.5351 30.9026 40.2862 29.1441C37.9948 27.4285 36.8491 25.0481 36.8491 22.0028V7.72031L36.7855 5.08255C36.7855 3.92451 36.5945 3.13103 36.2126 2.70213C35.8732 2.23033 35.1094 1.9301 33.9213 1.80143L32.1391 1.67276V0.643387H49.0697V21.6812L49.1334 24.3189C49.1334 26.0774 49.4304 27.407 50.0245 28.3077C50.661 29.1655 51.5945 29.5944 52.825 29.5944C54.1829 29.5944 55.1588 29.2084 55.7529 28.4364C56.3894 27.6644 56.8986 26.8709 57.2805 26.056V8.68535L57.1532 5.72591C57.1532 4.31052 56.9198 3.34549 56.453 2.8308C55.9863 2.31612 55.0527 1.97299 53.6525 1.80143L51.6794 1.67276V0.643387H69.5011V24.0616L69.5647 26.6993C69.5647 27.8574 69.7345 28.6723 70.0739 29.1441C70.4558 29.573 71.2408 29.8518 72.4289 29.9805L74.2111 30.1091V31.1385Z" fill="white"/>
<path d="M145.838 31.1385H126.68V30.1091C128.165 30.1091 129.035 29.8732 129.29 29.4014C129.587 28.9296 129.735 27.8145 129.735 26.0559L129.799 23.0965V10.1007L129.735 7.46294C129.735 5.61865 129.502 4.28905 129.035 3.47413C128.611 2.65921 127.826 2.25175 126.68 2.25175C125.916 2.25175 125.089 2.61632 124.198 3.34546C123.349 4.0317 122.776 5.4042 122.479 7.46294V23.0965L122.543 26.0559C122.543 27.4284 122.606 28.4149 122.734 29.0154C122.903 29.6159 123.731 29.9804 125.216 30.1091V31.1385H107.14V30.1091C108.582 30.1091 109.452 29.8732 109.749 29.4014C110.046 28.9296 110.195 27.8145 110.195 26.0559L110.259 23.0965V10.1007L110.195 7.46294C110.195 5.61865 109.962 4.28905 109.495 3.47413C109.07 2.65921 108.285 2.25175 107.14 2.25175C105.697 2.25175 104.7 2.72354 104.148 3.66713C103.639 4.61072 103.236 5.57576 102.939 6.56224V23.0965L103.003 26.0559C103.003 27.4284 103.066 28.4149 103.193 29.0154C103.363 29.6159 104.191 29.9804 105.676 30.1091V31.1385H87.6392V30.1091L88.045 30.0448C89.2756 29.9161 90.0181 29.6159 90.2727 29.1441C90.5273 28.6723 90.6546 27.6429 90.6546 26.0559L90.7183 23.0965V7.72028L90.6546 5.08252C90.5698 4.05315 90.4425 3.28112 90.2727 2.76643C90.103 2.25175 89.3392 1.93007 87.9814 1.8014L86.5174 1.67273V0.643356H102.684V5.46853C103.066 4.2676 103.809 3.06667 104.912 1.86574C106.058 0.621912 108.349 0 111.786 0C114.162 0 116.22 0.514686 117.96 1.54406C119.742 2.53054 121.058 4.0317 121.906 6.04755C122.118 5.27553 122.67 4.07459 123.561 2.44476C124.495 0.814919 127.083 0 131.326 0C134.212 0 136.715 0.814919 138.837 2.44476C140.959 4.07459 142.019 6.17622 142.019 8.74965V23.0965L142.083 26.0559C142.083 27.6858 142.189 28.7152 142.401 29.1441C142.656 29.573 143.42 29.8732 144.693 30.0448L145.838 30.1091V31.1385Z" fill="white"/>
<path d="M177.999 21.4881C176.811 24.7049 174.902 27.2354 172.271 29.0797C169.64 30.8811 166.543 31.7818 162.978 31.7818C157.971 31.7818 153.855 30.3879 150.63 27.6C147.406 24.7692 145.793 20.8662 145.793 15.8909C145.793 11.2587 147.448 7.46294 150.758 4.5035C154.11 1.50117 158.12 0 162.787 0C167.667 0 171.401 1.39394 173.99 4.18182C176.578 6.9697 177.872 10.3795 177.872 14.4112H158.332C158.332 15.9552 158.438 17.5422 158.65 19.172C158.905 20.759 159.35 22.303 159.987 23.8042C160.666 25.3054 161.599 26.5277 162.787 27.4713C164.018 28.372 165.545 28.8224 167.37 28.8224C169.958 28.8224 171.995 28.0932 173.48 26.635C175.008 25.1338 176.175 23.2681 176.981 21.0378L177.999 21.4881ZM166.797 13.1245C166.755 12.6527 166.712 12.0951 166.67 11.4518C166.67 10.8084 166.67 9.99348 166.67 9.007C166.67 6.39068 166.352 4.41772 165.715 3.08811C165.079 1.71562 163.975 1.02937 162.405 1.02937C161.048 1.02937 160.093 1.69417 159.541 3.02378C159.032 4.31049 158.671 6.3049 158.459 9.007L158.332 13.1245H166.797Z" fill="white"/>
<ellipse cx="6.48179" cy="39.5" rx="6.48179" ry="6.5" fill="#EDBA36"/>
<path fill-rule="evenodd" clip-rule="evenodd" d="M79.1791 18C78.9582 18 78.7791 18.1791 78.7791 18.4V22.25H74.941C74.7201 22.25 74.541 22.4291 74.541 22.65V26.35C74.541 26.5709 74.7201 26.75 74.941 26.75H78.7791V30.6C78.7791 30.8209 78.9582 31 79.1791 31H82.8665C83.0874 31 83.2665 30.8209 83.2665 30.6V26.75H87.1046C87.3255 26.75 87.5046 26.5709 87.5046 26.35V22.65C87.5046 22.4291 87.3255 22.25 87.1046 22.25H83.2665V18.4C83.2665 18.1791 83.0874 18 82.8665 18H79.1791Z" fill="#EDBA36"/>
</svg>
